<?xml version="1.0" encoding="utf-8"?>
<!-- Generator: Adobe Illustrator 19.1.0, SVG Export Plug-In . SVG Version: 6.00 Build 0)  -->
<svg version="1.1" id="Layer_1" xmlns="http://www.w3.org/2000/svg" xmlns:xlink="http://www.w3.org/1999/xlink" x="0px" y="0px"
	 viewBox="-26 -71.7 411.3 416.7" style="enable-background:new -26 -71.7 411.3 416.7;" xml:space="preserve">
<style type="text/css">
	.st0{fill:#D15028;}
</style>
<g>
	<g>
		<g>
			<rect x="88.8" y="86.9" class="st0" width="182.8" height="19.5"/>
			<polygon class="st0" points="335.4,153.8 24.7,153.8 24.7,125.7 44.2,125.7 44.2,134.3 315.9,134.3 315.9,130.1 335.4,130.1 			
				"/>
			<polyline class="st0" points="223.3,248.8 335.4,248.8 335.4,231.8 313.3,229.3 221.5,229.3 			"/>
			<polygon class="st0" points="314.8,201.2 44.2,201.2 24.7,194.8 24.7,181.8 335.4,181.8 335.4,200 			"/>
			<path class="st0" d="M373.5,164.6c-1.6,0-3.3-0.4-4.8-1.2L180.1,57L-8.7,163.4c-4.7,2.6-10.6,1-13.3-3.7
				c-2.6-4.7-1-10.6,3.7-13.3L180.1,34.7l198.2,111.7c4.7,2.6,6.3,8.6,3.7,13.3C380.2,162.9,376.9,164.6,373.5,164.6z"/>
			<polygon class="st0" points="324.2,118.8 304.7,118.8 304.7,61.4 295,61.4 295,102.3 275.5,102.3 275.5,41.9 324.2,41.9 			"/>
			<g>
				<path class="st0" d="M34.7,193.7c-15.5,0-28.2-12.6-28.2-28.2s12.6-28.1,28.2-28.1S63,150,63,165.6S50.2,193.7,34.7,193.7z
					 M34.7,156.8c-4.8,0-8.8,4-8.8,8.8c0,4.8,4,8.8,8.8,8.8s8.8-4,8.8-8.8C43.5,160.8,39.5,156.8,34.7,156.8z"/>
				<path class="st0" d="M34.7,244c-15.5,0-28.2-12.6-28.2-28.2c0-15.5,12.6-28.2,28.2-28.2S63,200.1,63,215.8
					C62.8,231.4,50.2,244,34.7,244z M34.7,207.1c-4.8,0-8.8,4-8.8,8.8c0,4.8,4,8.8,8.8,8.8s8.8-4,8.8-8.8
					C43.4,211.1,39.5,207.1,34.7,207.1z"/>
				<path class="st0" d="M34.7,295c-15.5,0-28.2-12.6-28.2-28.2c0-15.5,12.6-28.2,28.2-28.2S63,251.1,63,266.8
					C62.8,282.3,50.2,295,34.7,295z M34.7,258c-4.8,0-8.8,4-8.8,8.8c0,4.8,4,8.8,8.8,8.8s8.8-4,8.8-8.8C43.4,262,39.5,258,34.7,258z
					"/>
				<path class="st0" d="M34.7,345.3c-15.5,0-28.2-12.6-28.2-28.2c0-15.5,12.6-28.2,28.2-28.2S63,301.5,63,317.1
					C62.8,332.7,50.2,345.3,34.7,345.3z M34.7,308.5c-4.8,0-8.8,4-8.8,8.8s4,8.8,8.8,8.8s8.8-4,8.8-8.8
					C43.4,312.3,39.5,308.5,34.7,308.5z"/>
			</g>
			<g>
				<path class="st0" d="M326.1,193.7c-15.5,0-28.2-12.6-28.2-28.2s12.6-28.2,28.2-28.2c15.5,0,28.2,12.6,28.2,28.2
					S341.6,193.7,326.1,193.7z M326.1,156.8c-4.8,0-8.8,4-8.8,8.8c0,4.8,4,8.8,8.8,8.8s8.8-4,8.8-8.8
					C334.9,160.8,330.9,156.8,326.1,156.8z"/>
				<path class="st0" d="M326.1,244c-15.5,0-28.2-12.6-28.2-28.2c0-15.5,12.6-28.2,28.2-28.2c15.5,0,28.2,12.6,28.2,28.2
					C354.3,231.4,341.6,244,326.1,244z M326.1,207.1c-4.8,0-8.8,4-8.8,8.8c0,4.8,4,8.8,8.8,8.8s8.8-4,8.8-8.8
					C334.9,211.1,330.9,207.1,326.1,207.1z"/>
				<path class="st0" d="M326.1,295c-15.5,0-28.2-12.6-28.2-28.2c0-15.5,12.6-28.2,28.2-28.2c15.5,0,28.2,12.6,28.2,28.2
					C354.3,282.3,341.6,295,326.1,295z M326.1,258c-4.8,0-8.8,4-8.8,8.8c0,4.8,4,8.8,8.8,8.8s8.8-4,8.8-8.8
					C334.9,262,330.9,258,326.1,258z"/>
				<path class="st0" d="M326.1,345.3c-15.5,0-28.2-12.6-28.2-28.2c0-15.5,12.6-28.2,28.2-28.2c15.5,0,28.2,12.6,28.2,28.2
					C354.3,332.7,341.6,345.3,326.1,345.3z M326.1,308.5c-4.8,0-8.8,4-8.8,8.8s4,8.8,8.8,8.8s8.8-4,8.8-8.8
					C334.9,312.3,330.9,308.5,326.1,308.5z"/>
			</g>
			<g>
				<path class="st0" d="M136.7,276.8H50.2c-3.3,5.1-9,8.5-15.5,8.5c-3.7,0-7.1-1.1-10-3v19.3c2.9-1.9,6.3-3,10-3
					c3.4,0,6.7,1,9.5,2.6v-5.1h92.1"/>
				<path class="st0" d="M224.4,296.3h91.6v5.5c2.9-1.9,6.4-3,10.1-3c3.4,0,6.6,1,9.3,2.6v-24.5H224.4"/>
				<path class="st0" d="M326.1,335.6c-7.7,0-14.3-4.7-17-11.4H51.7c-2.7,6.7-9.3,11.4-17,11.4c-3.7,0-7.1-1.1-10-3v11.1h310.7V333
					C332.7,334.6,329.5,335.6,326.1,335.6z"/>
			</g>
			<path class="st0" d="M49,153.8h262.8c3.4-4.1,8.5-6.7,14.3-6.7c3.4,0,6.6,1,9.3,2.6v-15.4H24.7v15.8c2.9-1.9,6.3-3,10-3
				C40.5,147.1,45.6,149.7,49,153.8z"/>
			<path class="st0" d="M233,343.4H127.3V181.9H233V343.4z M146.6,323.9h66.9V201.4h-66.9L146.6,323.9L146.6,323.9z"/>
			<g>
				<polygon class="st0" points="136.9,248.8 136.9,229.3 24.7,229.3 24.7,251.3 44.2,248.8 				"/>
				<path class="st0" d="M223.3,229.3v19.5h92.7v2.6c2.9-1.9,6.4-3,10.1-3c3.4,0,6.6,1,9.3,2.6v-21.7H223.3z"/>
			</g>
			<polyline class="st0" points="136.9,229.3 138.3,248.8 24.7,248.8 24.7,237 44.2,229.3 136.9,229.3 			"/>
			<path class="st0" d="M197.1,232h-34l0,0c0-9.5,7.7-17,17-17l0,0C189.5,215,197.1,222.5,197.1,232L197.1,232z"/>
		</g>
	</g>
	<g>
		<g>
			<path class="st0" d="M301.5,22.8l-4.7-4.4l2.4,2.2l-2.4-2.2c1-1,9.1-10.4,0.1-19.3c-7.2-7.2-6.7-14.5-5.2-19.5
				c1.6-5.2,4.9-8.6,5.1-8.8l4.7,4.4c-0.9,1-9.1,10.4-0.1,19.3c7.2,7.2,6.7,14.5,5.2,19.5C304.9,19.2,301.6,22.7,301.5,22.8z"/>
			<path class="st0" d="M304.3-6.4c-5.5-5.5-3.1-12.3-0.1-15.4l4.7,4.4c-0.9,1-2.8,3.7-0.1,6.4L304.3-6.4z"/>
			<path class="st0" d="M293.3,14.9l-4.5-4.5c2.9-2.9,0.5-5.9-0.1-6.4l4.7-4.4C296.3,2.7,298.8,9.4,293.3,14.9z"/>
		</g>
		<g>
			<path class="st0" d="M289.4-50.4l-0.4-0.1c-0.3-0.1-0.4-0.4-0.3-0.6l0.1-0.4c0.1-0.2,0-0.5-0.2-0.5c-0.3-0.1-0.5,0-0.6,0.2
				l-0.1,0.4c-0.1,0.3-0.4,0.4-0.6,0.3l-0.4-0.1c-0.2-0.1-0.5,0-0.5,0.2c-0.1,0.3,0,0.5,0.2,0.6l0.4,0.1c0.3,0.1,0.4,0.4,0.3,0.6
				l-0.1,0.4c-0.1,0.2,0,0.5,0.2,0.5c0.3,0.1,0.5,0,0.6-0.2l0.1-0.4c0.1-0.3,0.4-0.4,0.6-0.3l0.4,0.1c0.3,0.1,0.5-0.1,0.5-0.3
				C289.7-50.1,289.6-50.3,289.4-50.4z"/>
			<path class="st0" d="M284.2-67.9l-0.3-0.1c-0.3-0.1-0.4-0.4-0.3-0.6l0.1-0.3c0.1-0.2,0-0.4-0.2-0.5c-0.2-0.1-0.5,0-0.5,0.2
				l-0.1,0.3c-0.1,0.3-0.4,0.4-0.6,0.3l-0.3-0.1c-0.2-0.1-0.4,0-0.5,0.2c-0.1,0.2,0,0.5,0.2,0.5l0.3,0.1c0.3,0.1,0.4,0.4,0.3,0.6
				l-0.1,0.3c-0.1,0.2,0,0.4,0.2,0.5s0.5,0,0.5-0.2l0.1-0.3c0.1-0.3,0.4-0.4,0.6-0.3l0.3,0.1c0.2,0.1,0.5,0,0.5-0.3
				C284.5-67.7,284.4-67.9,284.2-67.9z"/>
			<path class="st0" d="M327.3-40.3l-0.3,0.2c-0.2,0.2-0.5,0.2-0.7-0.1l-0.2-0.3c-0.2-0.2-0.4-0.2-0.5-0.1c-0.3,0.2-0.3,0.5-0.1,0.6
				l0.2,0.3c0.2,0.2,0.2,0.5-0.1,0.7l-0.3,0.2c-0.2,0.2-0.2,0.4-0.1,0.5c0.2,0.3,0.5,0.3,0.6,0.1l0.3-0.2c0.2-0.2,0.5-0.2,0.7,0.1
				l0.2,0.3c0.2,0.2,0.4,0.2,0.5,0.1c0.3-0.2,0.3-0.5,0.1-0.6l-0.2-0.3c-0.2-0.2-0.2-0.5,0.1-0.7l0.3-0.2c0.2-0.2,0.2-0.5,0-0.6
				C327.7-40.4,327.4-40.4,327.3-40.3z"/>
			<path class="st0" d="M323.3-53.2l-0.3,0.3c-0.3,0.2-0.6,0.2-0.8-0.1l-0.3-0.3c-0.2-0.2-0.5-0.3-0.6-0.1c-0.3,0.2-0.4,0.5-0.1,0.7
				l0.3,0.3c0.2,0.3,0.2,0.6-0.1,0.8l-0.3,0.3c-0.2,0.2-0.3,0.5-0.1,0.6c0.2,0.3,0.5,0.4,0.7,0.1l0.3-0.3c0.3-0.2,0.6-0.2,0.8,0.1
				l0.3,0.3c0.2,0.2,0.5,0.3,0.6,0.1c0.3-0.2,0.4-0.5,0.1-0.7l-0.3-0.3c-0.2-0.3-0.2-0.6,0.1-0.8l0.3-0.3c0.3-0.2,0.3-0.5,0-0.7
				C323.7-53.3,323.5-53.3,323.3-53.2z"/>
			<path class="st0" d="M326.1-6.2l-0.3,0.1c-0.2,0.1-0.5,0-0.5-0.3l-0.1-0.3c-0.1-0.2-0.2-0.3-0.4-0.3c-0.2,0-0.3,0.3-0.3,0.5
				l0.1,0.3c0.1,0.2,0,0.5-0.3,0.5l-0.3,0.1c-0.2,0.1-0.3,0.2-0.3,0.4c0,0.2,0.3,0.3,0.5,0.3l0.3-0.1c0.2-0.1,0.5,0,0.5,0.3l0.1,0.3
				c0.1,0.2,0.2,0.3,0.4,0.3c0.2,0,0.3-0.3,0.3-0.5L325.7-5c-0.1-0.2,0-0.5,0.3-0.5l0.3-0.1c0.2-0.1,0.3-0.3,0.2-0.5
				C326.5-6.2,326.3-6.2,326.1-6.2z"/>
			<path class="st0" d="M322.8-18.1l-0.3,0.1c-0.2,0.1-0.5,0-0.5-0.3l-0.1-0.3c-0.1-0.2-0.2-0.3-0.4-0.3c-0.2,0-0.3,0.3-0.3,0.5
				l0.1,0.3c0.1,0.2,0,0.5-0.3,0.5l-0.3,0.1c-0.2,0.1-0.3,0.2-0.3,0.4c0,0.2,0.3,0.3,0.5,0.3l0.3-0.1c0.2-0.1,0.5,0,0.5,0.3l0.1,0.3
				c0.1,0.2,0.2,0.3,0.4,0.3c0.2,0,0.3-0.3,0.3-0.5l-0.1-0.3c-0.1-0.2,0-0.5,0.3-0.5l0.3-0.1c0.2-0.1,0.3-0.3,0.2-0.5
				C323.2-18.1,323-18.2,322.8-18.1z"/>
			<path class="st0" d="M264.1-22.5l-0.3-0.1c-0.2-0.1-0.3-0.3-0.2-0.5l0.1-0.3c0.1-0.2,0-0.4-0.2-0.5c-0.2-0.1-0.4,0-0.5,0.2
				l-0.1,0.3c-0.1,0.2-0.3,0.3-0.5,0.2l-0.3,0.1c-0.2-0.1-0.4,0-0.5,0.2c-0.1,0.2,0,0.4,0.2,0.5l0.3,0.1c0.2,0.1,0.3,0.3,0.2,0.5
				l-0.1,0.3c-0.1,0.2,0,0.4,0.2,0.5c0.2,0.1,0.4,0,0.5-0.2l0.1-0.3c0.1-0.2,0.3-0.3,0.5-0.2l0.3,0.1c0.2,0.1,0.4,0,0.5-0.3
				C264.2-22.2,264.2-22.4,264.1-22.5z"/>
			<path class="st0" d="M277.7-7.5l-0.3-0.1c-0.2-0.1-0.3-0.3-0.2-0.5l0.1-0.3c0.1-0.2,0-0.4-0.2-0.5s-0.4,0-0.5,0.2l-0.1,0.3
				c-0.1,0.2-0.3,0.3-0.5,0.2l-0.3-0.1c-0.2-0.1-0.4,0-0.5,0.2c-0.1,0.2,0,0.4,0.2,0.5l0.3,0.1c0.2,0.1,0.3,0.3,0.2,0.5l-0.1,0.3
				c-0.1,0.2,0,0.4,0.2,0.5c0.2,0.1,0.4,0,0.5-0.2l0.1-0.3c0.1-0.2,0.3-0.3,0.5-0.2l0.3,0.1c0.2,0.1,0.4,0,0.5-0.3
				C278-7.3,277.8-7.5,277.7-7.5z"/>
			<path class="st0" d="M297.4-34.2l-0.3-0.1c-0.2-0.1-0.3-0.3-0.2-0.5l0.1-0.3c0.1-0.2,0-0.4-0.2-0.5c-0.2-0.1-0.4,0-0.5,0.2
				l-0.1,0.3c-0.1,0.2-0.3,0.3-0.5,0.2l-0.3-0.1c-0.2-0.1-0.4,0-0.5,0.2c-0.1,0.2,0,0.4,0.2,0.5l0.3,0.1c0.2,0.1,0.3,0.3,0.2,0.5
				l-0.1,0.3c-0.1,0.2,0,0.4,0.2,0.5c0.2,0.1,0.4,0,0.5-0.2l0.1-0.3c0.1-0.2,0.3-0.3,0.5-0.2l0.3,0.1c0.2,0.1,0.4,0,0.5-0.3
				C297.7-34,297.6-34.2,297.4-34.2z"/>
			<path class="st0" d="M325.5-30.1l-0.3-0.1c-0.2-0.1-0.3-0.3-0.2-0.5l0.1-0.3c0.1-0.2,0-0.4-0.2-0.5c-0.2-0.1-0.4,0-0.5,0.2
				l-0.1,0.3c-0.1,0.2-0.3,0.3-0.5,0.2l-0.3-0.1c-0.2-0.1-0.4,0-0.5,0.2c-0.1,0.2,0,0.4,0.2,0.5l0.3,0.1c0.2,0.1,0.3,0.3,0.2,0.5
				l-0.1,0.3c-0.1,0.2,0,0.4,0.2,0.5s0.4,0,0.5-0.2l0.1-0.3c0.1-0.2,0.3-0.3,0.5-0.2l0.3,0.1c0.2,0.1,0.4,0,0.5-0.3
				C325.7-29.9,325.6-30,325.5-30.1z"/>
			<path class="st0" d="M314.5,10.7l-0.3-0.1c-0.2-0.1-0.3-0.3-0.2-0.5l0.1-0.3c0.1-0.2,0-0.4-0.2-0.5c-0.2-0.1-0.4,0-0.5,0.2
				l-0.1,0.3c-0.1,0.2-0.3,0.3-0.5,0.2l-0.3-0.1c-0.2-0.1-0.4,0-0.5,0.2s0,0.4,0.2,0.5l0.3,0.1c0.2,0.1,0.3,0.3,0.2,0.5l-0.1,0.3
				c-0.1,0.2,0,0.4,0.2,0.5c0.2,0.1,0.4,0,0.5-0.2l0.1-0.3c0.1-0.2,0.3-0.3,0.5-0.2l0.3,0.1c0.2,0.1,0.4,0,0.5-0.3
				C314.8,10.9,314.7,10.8,314.5,10.7z"/>
			<path class="st0" d="M281.2,8.3l-0.5-0.2c-0.4-0.2-0.5-0.5-0.5-0.9l0.2-0.5c0.1-0.3,0-0.6-0.3-0.8c-0.4-0.2-0.7,0-0.9,0.4
				l-0.2,0.5c-0.2,0.4-0.5,0.5-0.9,0.5L277.8,7c-0.3-0.1-0.6,0-0.8,0.3c-0.2,0.4,0,0.7,0.4,0.9l0.5,0.2c0.4,0.2,0.5,0.5,0.5,0.9
				l-0.2,0.5c-0.1,0.3,0,0.6,0.3,0.8c0.4,0.2,0.7,0,0.9-0.4l0.2-0.5c0.2-0.4,0.5-0.5,0.9-0.5l0.5,0.2c0.4,0.1,0.7-0.1,0.8-0.5
				C281.7,8.7,281.5,8.4,281.2,8.3z"/>
			<path class="st0" d="M313.1-40.2l-0.5-0.2c-0.4-0.2-0.5-0.5-0.5-0.9l0.2-0.5c0.1-0.3,0-0.6-0.3-0.8c-0.4-0.2-0.7,0-0.9,0.4
				l-0.2,0.5c-0.2,0.4-0.5,0.5-0.9,0.5l-0.5-0.2c-0.3-0.1-0.6,0-0.8,0.3c-0.2,0.4,0,0.7,0.4,0.9l0.5,0.2c0.4,0.2,0.5,0.5,0.5,0.9
				l-0.2,0.5c-0.1,0.3,0,0.6,0.3,0.8c0.4,0.2,0.7,0,0.9-0.4l0.2-0.5c0.2-0.4,0.5-0.5,0.9-0.5l0.5,0.2c0.4,0.1,0.7-0.1,0.8-0.5
				C313.5-39.8,313.3-40.1,313.1-40.2z"/>
			<path class="st0" d="M314.1,24.8l-0.2-0.1c-0.2-0.1-0.3-0.3-0.2-0.4l0.1-0.2c0.1-0.1,0-0.3-0.1-0.4c-0.2-0.1-0.4,0-0.4,0.1
				l-0.1,0.2c-0.1,0.2-0.3,0.3-0.4,0.2l-0.2-0.1c-0.1-0.1-0.3,0-0.4,0.1c-0.1,0.2,0,0.4,0.1,0.4l0.2,0.1c0.2,0.1,0.3,0.3,0.2,0.4
				l-0.1,0.2c-0.1,0.1,0,0.3,0.1,0.4c0.2,0.1,0.4,0,0.4-0.1l0.1-0.2c0.1-0.2,0.3-0.3,0.4-0.2l0.2,0.1c0.2,0.1,0.4,0,0.4-0.2
				C314.3,24.9,314.3,24.8,314.1,24.8z"/>
			<path class="st0" d="M307.7,28.7l-0.2-0.1c-0.2-0.1-0.3-0.3-0.2-0.4l0.1-0.2c0.1-0.1,0-0.3-0.1-0.4c-0.2-0.1-0.4,0-0.4,0.1
				l-0.1,0.2c-0.1,0.2-0.3,0.3-0.4,0.2l-0.2-0.1c-0.1-0.1-0.3,0-0.4,0.1c-0.1,0.2,0,0.4,0.1,0.4l0.2,0.1c0.2,0.1,0.3,0.3,0.2,0.4
				l-0.1,0.2c-0.1,0.1,0,0.3,0.1,0.4c0.2,0.1,0.4,0,0.4-0.1l0.1-0.2c0.1-0.2,0.3-0.3,0.4-0.2l0.2,0.1c0.2,0.1,0.4,0,0.4-0.2
				C307.9,28.9,307.8,28.8,307.7,28.7z"/>
			<path class="st0" d="M292.1,19.1l-0.2-0.1c-0.2-0.1-0.3-0.3-0.2-0.4l0.1-0.2c0-0.1,0-0.3-0.1-0.3c-0.2-0.1-0.3,0-0.4,0.1
				l-0.1,0.2c-0.1,0.2-0.3,0.3-0.4,0.2l-0.2-0.1c-0.1,0-0.3,0-0.3,0.1c-0.1,0.2,0,0.3,0.1,0.4l0.2,0.1c0.2,0.1,0.3,0.3,0.2,0.4
				l-0.1,0.2c0,0.1,0,0.3,0.1,0.3c0.2,0.1,0.3,0,0.4-0.1l0.1-0.2c0.1-0.2,0.3-0.3,0.4-0.2l0.2,0.1c0.2,0.1,0.3,0,0.4-0.2
				C292.2,19.3,292.2,19.2,292.1,19.1z"/>
			<path class="st0" d="M303.9-58.7h-1.3c-1,0-1.9-0.8-1.9-1.9v-1.3c0-0.8-0.5-1.5-1.4-1.6c-1-0.2-1.8,0.6-1.8,1.5v1.3
				c0,1-0.8,1.9-1.9,1.9h-1.3c-0.8,0-1.5,0.5-1.6,1.4c-0.2,1,0.6,1.8,1.5,1.8h1.3c1,0,1.9,0.8,1.9,1.9v1.3c0,0.8,0.5,1.5,1.4,1.6
				c1,0.2,1.8-0.6,1.8-1.5v-1.3c0-1,0.8-1.9,1.9-1.9h1.3c1,0,1.7-0.8,1.5-1.8C305.3-58.2,304.6-58.7,303.9-58.7z"/>
			<path class="st0" d="M279.2-41.6h-0.9c-0.7,0-1.3-0.5-1.3-1.3v-0.9c0-0.5-0.4-1.1-0.9-1.2c-0.7-0.1-1.3,0.5-1.3,1.1v0.9
				c0,0.7-0.5,1.3-1.3,1.3h-0.9c-0.5,0-1.1,0.4-1.2,0.9c-0.1,0.7,0.5,1.3,1.1,1.3h0.9c0.7,0,1.3,0.5,1.3,1.3v0.9
				c0,0.5,0.4,1.1,0.9,1.2c0.7,0.1,1.3-0.5,1.3-1.1v-0.9c0-0.7,0.5-1.3,1.3-1.3h0.9c0.6,0,1.2-0.6,1.1-1.3
				C280.3-41.2,279.7-41.6,279.2-41.6z"/>
			<path class="st0" d="M340-22.3h-0.9c-0.7,0-1.3-0.5-1.3-1.3v-0.9c0-0.5-0.4-1.1-0.9-1.2c-0.7-0.1-1.3,0.5-1.3,1.1v0.9
				c0,0.7-0.5,1.3-1.3,1.3h-0.9c-0.5,0-1.1,0.4-1.2,0.9c-0.1,0.7,0.5,1.3,1.1,1.3h0.9c0.7,0,1.3,0.5,1.3,1.3v0.9
				c0,0.5,0.4,1.1,0.9,1.2c0.7,0.1,1.3-0.5,1.3-1.1v-0.9c0-0.7,0.5-1.3,1.3-1.3h0.9c0.6,0,1.2-0.6,1.1-1.3
				C341.1-21.9,340.7-22.3,340-22.3z"/>
			<path class="st0" d="M262.9-43.9l-0.3,0.3c-0.3,0.3-0.8,0.2-0.9-0.2l-0.3-0.3c-0.2-0.2-0.5-0.3-0.8-0.2s-0.3,0.6-0.2,0.8l0.3,0.3
				c0.3,0.3,0.2,0.8-0.2,0.9l-0.3,0.3c-0.2,0.2-0.3,0.5-0.2,0.8c0.2,0.3,0.6,0.3,0.8,0.2l0.3-0.3c0.3-0.3,0.8-0.2,0.9,0.2l0.3,0.3
				c0.2,0.2,0.5,0.3,0.8,0.2s0.3-0.6,0.2-0.8l-0.3-0.3c-0.3-0.3-0.2-0.8,0.2-0.9l0.3-0.3c0.3-0.2,0.3-0.6,0-0.9
				C263.3-44,263-44,262.9-43.9z"/>
			<path class="st0" d="M285.2-15.9l-0.5-0.2c-0.4-0.2-0.5-0.5-0.5-0.9l0.2-0.5c0.1-0.3,0-0.6-0.3-0.8c-0.4-0.2-0.7,0-0.9,0.4
				l-0.2,0.5c-0.2,0.4-0.5,0.5-0.9,0.5l-0.5-0.2c-0.3-0.1-0.6,0-0.8,0.3c-0.2,0.4,0,0.7,0.4,0.9l0.5,0.2c0.4,0.2,0.5,0.5,0.5,0.9
				l-0.2,0.5c-0.1,0.3,0,0.6,0.3,0.8c0.4,0.2,0.7,0,0.9-0.4l0.2-0.5c0.2-0.4,0.5-0.5,0.9-0.5l0.5,0.2c0.4,0.1,0.7-0.1,0.8-0.5
				C285.6-15.4,285.5-15.8,285.2-15.9z"/>
		</g>
	</g>
</g>
</svg>
