<?xml version="1.0" encoding="utf-8"?>
<!-- Generator: Adobe Illustrator 19.1.0, SVG Export Plug-In . SVG Version: 6.00 Build 0)  -->
<svg version="1.1" id="Layer_1" xmlns="http://www.w3.org/2000/svg" xmlns:xlink="http://www.w3.org/1999/xlink" x="0px" y="0px"
	 viewBox="0 0 360 79.5" style="enable-background:new 0 0 360 79.5;" xml:space="preserve">
<style type="text/css">
	.st0{fill:#323D3F;}
	.st1{fill:#D15028;}
	.st2{fill:#B5351C;}
	.st3{fill:#918E2C;}
	.st4{fill:#706C2A;}
	.st5{fill:#F2DFD0;}
	.st6{font-family:'FuturaPT-Book';}
	.st7{font-size:10.099px;}
</style>
<g>
	<g>
		<g>
			<g>
				<polygon class="st0" points="55.5,46.8 30.1,61.5 4.7,46.8 4.7,17.5 30.1,2.8 55.5,17.5 				"/>
			</g>
			<g>
				<polygon class="st1" points="115.5,46.8 90,61.5 64.6,46.8 64.6,17.5 90,2.8 115.5,17.5 				"/>
			</g>
			<g>
				<polygon class="st2" points="175.4,46.8 150,61.5 124.6,46.8 124.6,17.5 150,2.8 175.4,17.5 				"/>
			</g>
			<g>
				<polygon class="st3" points="235.4,46.8 210,61.5 184.6,46.8 184.6,17.5 210,2.8 235.4,17.5 				"/>
			</g>
			<g>
				<polygon class="st4" points="295.4,46.8 270,61.5 244.5,46.8 244.5,17.5 270,2.8 295.4,17.5 				"/>
			</g>
			<g>
				<polygon class="st5" points="355.3,46.8 329.9,61.5 304.5,46.8 304.5,17.5 329.9,2.8 355.3,17.5 				"/>
			</g>
		</g>
	</g>
	<g>
		<text transform="matrix(1 0 0 1 10.6738 75.4775)" class="st6 st7">#323D3F</text>
		<text transform="matrix(1 0 0 1 69.9748 75.4775)" class="st6 st7">#D15028</text>
		<text transform="matrix(1 0 0 1 130.255 75.4775)" class="st6 st7">#B5351C</text>
		<text transform="matrix(1 0 0 1 192.5041 75.4775)" class="st6 st7">#918E2C</text>
		<text transform="matrix(1 0 0 1 249.6993 75.4775)" class="st6 st7">#706C2A</text>
		<text transform="matrix(1 0 0 1 310.2637 75.4775)" class="st6 st7">#F2DFD0</text>
	</g>
</g>
</svg>
