<?xml version="1.0" encoding="utf-8"?>
<!-- Generator: Adobe Illustrator 19.1.0, SVG Export Plug-In . SVG Version: 6.00 Build 0)  -->
<svg version="1.1" id="Layer_1" xmlns="http://www.w3.org/2000/svg" xmlns:xlink="http://www.w3.org/1999/xlink" x="0px" y="0px"
	 viewBox="0 0 360 360" style="enable-background:new 0 0 360 360;" xml:space="preserve">
<style type="text/css">
	.st0{fill:#1A333A;}
	.st1{enable-background:new    ;}
</style>
<g>
	<g>
		<g>
			<path class="st0" d="M233.8,242.5H82.5v-81.9c0-21.7,17.7-39.4,39.4-39.4h72.6c21.7,0,39.4,17.7,39.4,39.4L233.8,242.5
				L233.8,242.5z M96.7,228.3h122.9v-67.7c0-13.9-11.3-25.2-25.2-25.2h-72.6c-13.9,0-25.2,11.3-25.2,25.2L96.7,228.3L96.7,228.3z"/>
			<path class="st0" d="M196.6,134.6h-76.9V92.5c0-4,3.3-7.3,7.3-7.3h62.3c4,0,7.3,3.3,7.3,7.3V134.6z M133.9,120.4h48.5v-21h-48.5
				V120.4z"/>
			<path class="st0" d="M195.1,133.1H121v-29h74.1V133.1z M132.4,121.8h51.3v-6.2h-51.3V121.8z"/>
			<path class="st0" d="M213.9,167.5h-14.2c0-10.3-4.5-12.3-12.3-12.3V141C204.5,141.1,213.9,150.5,213.9,167.5z"/>
		</g>
		<g>
			<polygon class="st0" points="286.2,230 280.6,242.5 275.1,230 275.1,29.7 286.2,29.7 			"/>
			<g>
				<path class="st0" d="M280.6,183.9c-38.3,0-42.8-41.5-42.8-72.7c0-44.7,36.1-91.4,37.7-93.4l5.1-6.5l5.1,6.5
					c1.5,2,37.7,48.7,37.7,93.4C323.4,159.5,309,183.9,280.6,183.9z M280.6,32.9c-9.7,14.2-29.9,47.6-29.9,78.4
					c0,53,16,59.8,29.9,59.8c7.4,0,29.9,0,29.9-59.8C310.5,80.5,290.3,47.1,280.6,32.9z"/>
				<polygon class="st0" points="280.6,84.8 260.1,49.2 269,44 280.6,64.2 292.3,44 301.2,49.2 				"/>
				<polygon class="st0" points="280.6,126.8 250.1,74 259.1,68.8 280.6,106.2 302.2,68.8 311.1,74 				"/>
				<polygon class="st0" points="280.6,170.6 239.9,100.1 248.8,95 280.6,150 312.4,95 321.4,100.1 				"/>
			</g>
		</g>
	</g>
	<g class="st1">
		<path class="st0" d="M48.4,299.3v36c0,4.1-0.1,8.6-3.1,11.8c-1.7,1.9-4.3,3.2-8,3.2c-3.6,0-6.7-1.1-8.9-3.7l3.1-4.4
			c1.7,1.8,3.8,2.8,5.7,2.8c1.5,0,2.9-0.5,3.8-1.4c1.9-1.9,1.9-5,1.9-8.1v-36.2H48.4z"/>
		<path class="st0" d="M58.6,324.4c0-14.9,11.6-25.9,26-25.9s26,11,26,25.9c0,14.9-11.6,25.9-26,25.9S58.6,339.2,58.6,324.4z
			 M64.3,324.4c0,11.5,9.1,20.6,20.3,20.6s20.3-9.2,20.3-20.6s-9.1-20.6-20.3-20.6S64.3,312.9,64.3,324.4z"/>
		<path class="st0" d="M126.4,330c0,4.2,0,8.8,4,12.2c2,1.7,5.5,2.9,8.3,2.9c2.8,0,6.2-1.1,8.3-2.9c4-3.4,4-8,4-12.2v-30.7h5.6v32.2
			c0,4.2-0.5,8.3-3.2,12c-3,4.1-8.3,6.8-14.6,6.8s-11.6-2.6-14.6-6.8c-2.7-3.8-3.2-7.8-3.2-12v-32.2h5.6V330z"/>
		<path class="st0" d="M177.4,299.3c3.4,0,8.4,0.2,12.2,2.8c2.9,2,5.5,5.8,5.5,11.1c0,7.7-5,13.3-12.6,13.8l15.9,22.4h-6.8
			l-15.2-21.9h-1.4v21.9h-5.6v-50.1H177.4z M174.9,322.5h3.5c6.9,0,11-3.3,11-9.2c0-2.8-0.8-5.6-4-7.4c-2.3-1.3-4.8-1.4-7.2-1.4
			h-3.4V322.5z"/>
		<path class="st0" d="M207,349.4v-52.2l39,40.9v-38.8h5.6v52.3l-39-40.9v38.6H207z"/>
		<path class="st0" d="M292.1,335.3h-21.3l-6,14.1h-6.2l23-52.5l22.4,52.5H298L292.1,335.3z M289.9,330l-8.4-20l-8.6,20H289.9z"/>
		<path class="st0" d="M316.7,299.3v44.8h13.8v5.3h-19.4v-50.1H316.7z"/>
	</g>
</g>
</svg>
