<?xml version="1.0" encoding="utf-8"?>
<!-- Generator: Adobe Illustrator 19.1.0, SVG Export Plug-In . SVG Version: 6.00 Build 0)  -->
<svg version="1.1" id="Layer_1" xmlns="http://www.w3.org/2000/svg" xmlns:xlink="http://www.w3.org/1999/xlink" x="0px" y="0px"
	 viewBox="0 0 360 360" style="enable-background:new 0 0 360 360;" xml:space="preserve">
<style type="text/css">
	.st0{fill:#1A333A;}
</style>
<g>
	<g>
		<g>
			<path class="st0" d="M173.9,250.1l-56.7-25.6l-50.9,21.7c-3.6,1.5-7.7,1.2-11-1s-5.2-5.8-5.2-9.7V47.7c0-4.7,2.8-8.9,7.1-10.7
				l60.3-25.5l56.3,25.4l60.5-27.6L290,37.1l0,0c4,2,6.4,6,6.4,10.4v187.4c0,4.1-2.1,7.8-5.5,9.9c-3.5,2.1-7.7,2.3-11.4,0.5
				l-45-22.9L173.9,250.1z M117.4,209l56.5,25.5l56-25.5c3.2-1.5,6.9-1.4,10.1,0.2l42.4,21.5V49.1L234.1,25l-60.2,27.5L117.4,27
				l-53,22.4v182.2L117.4,209z"/>
			<rect x="227.1" y="17.2" class="st0" width="14.2" height="197.3"/>
			<rect x="166.8" y="44.7" class="st0" width="14.2" height="197.6"/>
			<rect x="110.4" y="19.2" class="st0" width="14.2" height="197.5"/>
		</g>
		<g>
			<path class="st0" d="M257.1,188.4c-2-1.4-4.2-2.4-6.6-3.1l2.7-9.5c3.5,1,6.7,2.5,9.6,4.5c1.4,1,2.6,2,3.8,3.1l-6.7,7.2
				C259.1,189.8,258.1,189.1,257.1,188.4z M219.2,180.7l5.5-8.2c1.6,1,3.3,1.6,4.4,1.4c1.8-0.3,3.5-0.5,5.3-0.6l0.4,9.8
				c-1.3,0.1-2.6,0.2-3.9,0.5c-0.7,0.1-1.4,0.2-2.1,0.2C225.6,183.8,222.2,182.7,219.2,180.7z M209.8,163.7v-0.2
				c0-3.2,0.3-5.9,0.8-8.3l9.5,2.4c-0.4,1.5-0.6,3.5-0.6,5.8v0.2c0,1.4,0.3,2.7,0.8,3.9l-9.1,3.8
				C210.3,168.8,209.8,166.3,209.8,163.7z M216.7,144.8c3.7-3.9,8.9-6.4,14.6-7.1l1.2,9.8c-3.4,0.4-6.5,1.9-8.7,4.2L216.7,144.8z
				 M245.5,136.4c4.1-0.7,7.3-2.1,9.7-4.1l6.4,7.5c-3.7,3.1-8.5,5.2-14.3,6.3L245.5,136.4z M258.9,126.7c0.5-1.7,0.8-3.6,0.7-5.8
				c0-1.5-0.2-3.2-0.5-5l9.7-1.7c0.4,2.3,0.6,4.5,0.6,6.5c0,3.2-0.4,6.2-1.2,8.9L258.9,126.7z M187.2,115.5c3.8-1.2,7.5-2.9,11-5
				l5,8.4c-4.2,2.5-8.5,4.5-13,5.9L187.2,115.5z M205.5,105.4c2.7-2.2,5.4-4.8,8-7.6c0.4-0.4,0.8-0.8,1.2-1.2l6.9,7
				c-0.3,0.3-0.6,0.6-0.8,0.9c-2.9,3.2-5.9,6-9,8.6L205.5,105.4z M250.7,100.1l5.4-8.3c4.4,2.8,7.8,6.9,10.2,12l-8.9,4.1
				C255.8,104.6,253.5,101.9,250.7,100.1z M224.1,90.3c3.5-1.5,7.2-2.3,11-2.3l0,0c1.5,0,3.1,0.1,4.6,0.3l-1.5,9.7
				c-1-0.1-2-0.2-3-0.2l0,0c-2.5,0-4.9,0.6-7.3,1.6L224.1,90.3z"/>
		</g>
		<g>
			<path class="st0" d="M107.9,57.7c2,1.4,4.2,2.4,6.6,3.1l-2.7,9.5c-3.5-1-6.7-2.5-9.6-4.5c-1.4-1-2.6-2-3.8-3.1l6.7-7.2
				C106,56.3,107,57,107.9,57.7z M138.2,64.1l-5.5,8.2c-1.6-1-3.3-1.6-4.4-1.4c-1.8,0.3-3.5,0.5-5.3,0.6l-0.4-9.8
				c1.3-0.1,2.6-0.2,3.9-0.5c0.7-0.1,1.4-0.2,2.1-0.2C131.7,61,135.1,62.1,138.2,64.1z M147.6,81.2v0.2c0,3.2-0.3,5.9-0.8,8.3
				l-9.5-2.4c0.4-1.5,0.6-3.5,0.6-5.8v-0.2c0-1.4-0.3-2.7-0.8-3.9l9.1-3.8C147,76,147.5,78.6,147.6,81.2z M140.6,100
				c-3.7,3.9-8.9,6.4-14.6,7.1l-1.2-9.8c3.4-0.4,6.5-1.9,8.7-4.2L140.6,100z M116.7,107.9c-4.1,0.7-7.3,2.1-9.7,4.1l-6.4-7.5
				c3.7-3.1,8.5-5.2,14.3-6.3L116.7,107.9z M103.4,117.6c-0.5,1.7-0.8,3.6-0.7,5.8c0,1.5,0.2,3.2,0.5,5l-9.7,1.7
				c-0.4-2.3-0.6-4.5-0.6-6.5c0-3.2,0.4-6.2,1.2-8.9L103.4,117.6z M170.1,129.3c-3.8,1.2-7.5,2.9-11,5l-5-8.4
				c4.2-2.5,8.5-4.5,13-5.9L170.1,129.3z M151.9,139.4c-2.7,2.2-5.4,4.8-8,7.6c-0.4,0.4-0.8,0.8-1.2,1.2l-6.9-7
				c0.3-0.3,0.6-0.6,0.8-0.9c2.9-3.2,5.9-6,9-8.6L151.9,139.4z M112.1,144.2l-5.4,8.3c-4.4-2.8-7.8-6.9-10.2-12l8.9-4.1
				C107.1,139.7,109.3,142.4,112.1,144.2z M133.2,154.5c-3.5,1.5-7.2,2.3-11,2.3l0,0c-1.5,0-3.1-0.1-4.6-0.3l1.5-9.7
				c1,0.1,2,0.2,3,0.2l0,0c2.5,0,4.9-0.6,7.3-1.6L133.2,154.5z"/>
			<path class="st0" d="M99.1,44.1l-9.7,1.4c0.4,2.7,1.1,5.4,2.2,7.8l9-4C99.9,47.6,99.4,45.9,99.1,44.1z"/>
		</g>
		<g>
			
				<rect x="261.7" y="193.4" transform="matrix(-0.7072 -0.707 0.707 -0.7072 311.6619 538.933)" class="st0" width="11.4" height="23.1"/>
			
				<rect x="255.9" y="199.3" transform="matrix(-0.7071 -0.7071 0.7071 -0.7071 311.5315 539.0511)" class="st0" width="23.1" height="11.4"/>
		</g>
	</g>
	<g>
		<path class="st0" d="M20.4,299.8v44.8h13.8v5.3H14.9v-50.1H20.4z"/>
		<path class="st0" d="M36.5,324.8c0-14.9,11.6-25.9,26-25.9s26,11,26,25.9c0,14.9-11.6,25.9-26,25.9S36.5,339.7,36.5,324.8z
			 M42.2,324.8c0,11.5,9.1,20.6,20.3,20.6s20.3-9.2,20.3-20.6s-9.1-20.6-20.3-20.6S42.2,313.4,42.2,324.8z"/>
		<path class="st0" d="M137,310.8c-1.6-1.6-4-3.5-6.5-4.7c-2.6-1.2-5.7-2-8.6-2c-11.6,0-20.1,9.3-20.1,20.9
			c0,13.6,11,20.4,20.2,20.4c3.4,0,6.7-1,9.3-2.3c2.9-1.4,4.9-3.3,5.8-4.2v6.9c-5.6,4-11.3,4.9-15.1,4.9
			c-14.9,0-25.9-11.3-25.9-25.7c0-14.9,11.2-26,26.2-26c3,0,8.8,0.4,14.8,5V310.8z"/>
		<path class="st0" d="M174.9,335.7h-21.3l-6,14.1h-6.2l23-52.5l22.4,52.5h-6.2L174.9,335.7z M172.7,330.5l-8.4-20l-8.6,20H172.7z"
			/>
		<path class="st0" d="M202.9,305v44.8h-5.6V305h-12.2v-5.3H215v5.3H202.9z"/>
		<path class="st0" d="M228.1,299.8v50.1h-5.6v-50.1H228.1z"/>
		<path class="st0" d="M238.3,324.8c0-14.9,11.6-25.9,26-25.9s26,11,26,25.9c0,14.9-11.6,25.9-26,25.9S238.3,339.7,238.3,324.8z
			 M244,324.8c0,11.5,9.1,20.6,20.3,20.6s20.3-9.2,20.3-20.6s-9.1-20.6-20.3-20.6S244,313.4,244,324.8z"/>
		<path class="st0" d="M300.5,349.8v-52.2l39,40.9v-38.8h5.6v52.3l-39-40.9v38.6H300.5z"/>
	</g>
</g>
</svg>
