<?xml version="1.0" encoding="utf-8"?>
<!-- Generator: Adobe Illustrator 19.1.0, SVG Export Plug-In . SVG Version: 6.00 Build 0)  -->
<svg version="1.1" id="Layer_1" xmlns="http://www.w3.org/2000/svg" xmlns:xlink="http://www.w3.org/1999/xlink" x="0px" y="0px"
	 viewBox="0 0 360 360" style="enable-background:new 0 0 360 360;" xml:space="preserve">
<style type="text/css">
	.st0{fill:#323D3F;}
	.st1{fill:#918E2C;}
	.st2{fill:#706C2A;}
</style>
<g>
	<g>
		<polygon class="st0" points="332.9,268.2 180,356.5 27.1,268.2 27.1,91.8 180,3.5 332.9,91.8 		"/>
		<g>
			<path class="st1" d="M156.1,64l-23.9,52.7l41.1,90.6c6,13.2-3.7,28.7-18.1,28.2c-0.5,0-1-0.1-1.5-0.1c-9.8-1-17.3-8.4-18.5-18.2
				c-1.5-12.7,8.4-23.8,20.7-23.8l0,0l-19.6-43c-28.9,8.9-50.2,34.8-48.9,66.9c1.4,34.2,28.4,62.6,62.5,65.5
				c30.7,2.6,57.8-15.2,69-41.3c5.5-12.9,5.2-27.6-0.6-40.4L156.1,64z"/>
			<polygon class="st2" points="214.8,63.2 190.9,115.9 235.4,214.1 283.1,214.1 			"/>
			<polyline class="st1" points="241.4,116 214.8,63.2 214.8,168.5 235.4,214.1 284.7,214.1 261.5,166.4 264.7,166.4 238.7,116 
				240.6,116 			"/>
		</g>
	</g>
</g>
</svg>
