<?xml version="1.0" encoding="utf-8"?>
<!-- Generator: Adobe Illustrator 19.1.0, SVG Export Plug-In . SVG Version: 6.00 Build 0)  -->
<svg version="1.1" id="Layer_1" xmlns="http://www.w3.org/2000/svg" xmlns:xlink="http://www.w3.org/1999/xlink" x="0px" y="0px"
	 viewBox="0 0 838 254" style="enable-background:new 0 0 838 254;" xml:space="preserve">
<style type="text/css">
	.st0{fill:#323D3F;}
	.st1{fill:#D15028;}
	.st2{fill:#B5351C;}
	.st3{fill:#F2DFD0;}
	.st4{fill:#918E2C;}
	.st5{fill:#706C2A;}
</style>
<g>
	<g>
		<g>
			<g>
				<polygon class="st0" points="169,147.2 85.6,195.4 2.3,147.2 2.3,51 85.6,2.9 169,51 				"/>
				<g>
					<path class="st1" d="M72.6,35.9l-13,28.7L82,114c3.3,7.2-2,15.7-9.9,15.4c-0.3,0-0.6,0-0.8-0.1c-5.3-0.6-9.4-4.6-10.1-9.9
						c-0.8-6.9,4.6-13,11.3-13l0,0L61.8,83.1c-15.7,4.8-27.4,19-26.7,36.5c0.8,18.7,15.5,34.2,34.1,35.7
						c16.8,1.4,31.5-8.3,37.6-22.5c3-7,2.8-15-0.3-22L72.6,35.9z"/>
					<polygon class="st2" points="104.6,35.4 91.6,64.1 115.9,117.7 141.9,117.7 					"/>
					<polyline class="st1" points="119.1,64.2 104.6,35.4 104.6,92.8 115.9,117.7 142.7,117.7 130.1,91.7 131.8,91.7 117.6,64.2 
						118.7,64.2 					"/>
				</g>
			</g>
			<g>
				<g>
					<g>
						<g>
							<polygon class="st0" points="18.8,251.7 18.8,248.7 20.7,248.7 20.7,238.8 15.6,251.7 13.5,251.7 8.4,238.8 8.4,248.7 
								10.3,248.7 10.3,251.7 3.4,251.7 3.4,248.7 5.3,248.7 5.3,235.4 3.4,235.4 3.4,232.4 9.2,232.4 14.6,246.4 20.1,232.4 
								25.7,232.4 25.7,235.4 23.8,235.4 23.8,248.7 25.7,248.7 25.7,251.7 							"/>
						</g>
						<g>
							<path class="st0" d="M36.8,251.7c-2.6,0-4.8-0.9-6.4-2.6c-1.6-1.7-2.4-4.1-2.4-7c0-3,0.8-5.4,2.4-7.1
								c1.6-1.7,3.8-2.6,6.4-2.6c1.9,0,3.9,0.5,5.9,1.5l0.3,0.2v4.7H40v-2.7c-1-0.4-2.1-0.6-3.3-0.6c-1.8,0-3.2,0.5-4.1,1.7
								c-0.9,1.1-1.4,2.8-1.4,4.9c0,2.1,0.5,3.8,1.5,5c1,1.2,2.4,1.8,4.2,1.8c1.6,0,3.4-0.6,5.2-1.7l0.9-0.5v3.2l-0.3,0.2
								C40.8,251.1,38.8,251.7,36.8,251.7z"/>
						</g>
						<g>
							<path class="st0" d="M57.1,251.7v-3h1.8l-1.1-3.2h-6l-1.1,3.2h1.9v3h-6.9v-3h1.9l5.9-16.3h2.9l5.8,16.3H64v3H57.1z
								 M56.7,242.5l-2-5.6l-2,5.6H56.7z"/>
						</g>
						<g>
							<polygon class="st0" points="66.6,251.7 66.6,248.7 68.5,248.7 68.5,235.4 66.6,235.4 66.6,232.4 73.5,232.4 73.5,235.4 
								71.6,235.4 71.6,248.7 78.1,248.7 78.1,245.2 81.2,245.2 81.2,251.7 							"/>
						</g>
						<g>
							<polygon class="st0" points="83.2,251.7 83.2,248.7 85.1,248.7 85.1,235.4 83.2,235.4 83.2,232.4 90.1,232.4 90.1,235.4 
								88.2,235.4 88.2,248.7 90.1,248.7 90.1,251.7 							"/>
						</g>
						<g>
							<polygon class="st0" points="107.6,251.7 98.8,238.4 98.8,248.7 100.8,248.7 100.8,251.7 93.9,251.7 93.9,248.7 95.8,248.7 
								95.8,235.4 93.9,235.4 93.9,232.4 98.6,232.4 107.3,245.7 107.3,235.4 105.4,235.4 105.4,232.4 112.3,232.4 112.3,235.4 
								110.4,235.4 110.4,251.7 							"/>
						</g>
						<g>
							<path class="st0" d="M115.3,251.7v-3h1.9v-13.3h-1.9v-3h6.5c3,0,5.3,0.8,6.8,2.3c1.6,1.5,2.4,3.8,2.4,6.8
								c0,3.3-0.9,5.9-2.6,7.6c-1.7,1.7-4,2.5-6.9,2.5H115.3z M121.7,248.7c2,0,3.5-0.5,4.5-1.7c1-1.1,1.6-2.9,1.6-5.2
								c0-2.2-0.5-3.8-1.4-4.8c-0.9-1-2.5-1.5-4.6-1.5h-1.4v13.3H121.7z"/>
						</g>
						<g>
							<polygon class="st0" points="133.1,251.7 133.1,248.7 135,248.7 135,235.4 133.1,235.4 133.1,232.4 147,232.4 147,238.9 
								144,238.9 144,235.4 138.1,235.4 138.1,240.2 140.1,240.2 140.1,238.1 143.2,238.1 143.2,245.3 140.1,245.3 140.1,243.1 
								138.1,243.1 138.1,248.7 144,248.7 144,245.2 147,245.2 147,251.7 							"/>
						</g>
						<g>
							<polygon class="st0" points="163.1,251.7 154.4,238.4 154.4,248.7 156.3,248.7 156.3,251.7 149.4,251.7 149.4,248.7 
								151.4,248.7 151.4,235.4 149.4,235.4 149.4,232.4 154.2,232.4 162.9,245.7 162.9,235.4 161,235.4 161,232.4 167.9,232.4 
								167.9,235.4 165.9,235.4 165.9,251.7 							"/>
						</g>
						<g>
							<path class="st0" d="M36.9,251.7c-2.6,0-4.8-0.9-6.4-2.6c-1.6-1.7-2.4-4.1-2.4-7.1c0-2.9,0.8-5.2,2.4-7
								c1.6-1.7,3.8-2.6,6.4-2.6c2,0,4,0.6,6,1.8l0.3,0.2v3.2l-0.9-0.5c-1.9-1.1-3.6-1.7-5.2-1.7c-1.8,0-3.2,0.6-4.2,1.8
								c-1,1.2-1.5,2.9-1.5,5c0,2.1,0.5,3.7,1.4,4.9c0.9,1.1,2.3,1.7,4.1,1.7c1.2,0,2.3-0.2,3.3-0.6v-2.7h3.1v4.7l-0.3,0.2
								C40.8,251.2,38.8,251.7,36.9,251.7z"/>
						</g>
					</g>
				</g>
				<g>
					<g>
						<g>
							<path class="st0" d="M14.3,220.7v-2.9H16l-1.1-3H9.3l-1,3H10v2.9H3.4v-2.9h1.8l5.6-15.5h2.8l5.5,15.5h1.8v2.9H14.3z
								 M13.9,211.9l-1.8-5.2l-1.8,5.2H13.9z"/>
						</g>
						<g>
							<path class="st0" d="M30.8,220.7l-0.1-1.3c-1,0.9-2.2,1.3-3.5,1.3c-1.4,0-2.4-0.4-3.2-1.1c-0.8-0.8-1.1-1.8-1.1-3.1
								c0-2.2,1.2-4.8,7-4.8h0.7v-0.8c0-0.6-0.1-1.1-0.5-1.3c-0.3-0.3-0.8-0.4-1.6-0.4c-1.2,0-2.6,0.4-4.1,1.1l-0.8,0.4v-3l0.3-0.2
								c1.6-0.8,3.2-1.2,4.9-1.2c1.5,0,2.7,0.4,3.5,1.1c0.8,0.8,1.2,2,1.2,3.6v6.9h1.8v2.9H30.8z M29.6,214.5
								c-3.6,0-3.6,1.4-3.6,1.8c0,0.5,0.1,0.9,0.4,1.1c0.3,0.2,0.7,0.4,1.2,0.4c1.1,0,2.1-0.5,3-1.6v-1.7H29.6z"/>
						</g>
						<g>
							<path class="st0" d="M38.2,220.7v-2.9H40v-8.7h-1.8v-2.9h4.6l0.1,1.1c0.8-0.7,1.7-1.1,2.8-1.1c0.3,0,0.7,0,1,0.1l0.5,0.1v3.3
								l-0.7-0.1c-0.4-0.1-0.8-0.1-1.1-0.1c-1.1,0-1.9,0.5-2.4,1.6v6.9h1.8v2.9H38.2z"/>
						</g>
						<g>
							<path class="st0" d="M55.4,220.7c-1.9,0-3.4-0.7-4.5-2c-1.1-1.3-1.7-3-1.7-5.2c0-2.2,0.6-4,1.8-5.3c1.2-1.3,2.8-2,4.7-2
								c1.9,0,3.4,0.6,4.5,1.9c1.1,1.2,1.7,3,1.7,5.1c0,2.3-0.6,4.1-1.8,5.4C58.9,220,57.3,220.7,55.4,220.7z M55.4,209.1
								c-1,0-1.7,0.3-2.3,0.9c-0.6,0.6-0.9,1.7-0.9,3.2c0,1.6,0.3,2.7,0.9,3.5c0.6,0.7,1.4,1.1,2.4,1.1c1,0,1.8-0.3,2.3-1
								c0.6-0.7,0.8-1.9,0.8-3.4c0-1.5-0.3-2.7-0.8-3.4C57.4,209.4,56.6,209.1,55.4,209.1z"/>
						</g>
						<g>
							<path class="st0" d="M72,220.7v-2.9h1.8v-6.8c0-0.8-0.1-1.3-0.4-1.6c-0.3-0.3-0.7-0.4-1.2-0.4c-1.1,0-2.1,0.5-3,1.7v7.1H71
								v2.9h-6.6v-2.9h1.8v-8.7h-1.8v-2.9h4.7l0.1,1.2c1-0.8,2.2-1.2,3.5-1.2c1.4,0,2.4,0.4,3.1,1.3c0.7,0.8,1,1.9,1,3.3v7h1.8v2.9
								H72z"/>
						</g>
						<g>
							<path class="st0" d="M87.5,224.6c-0.4,0-0.8,0-1.1-0.1l-0.5-0.1v-2.8l0.6,0c0.2,0,0.5,0,0.8,0c0.6,0,1-0.1,1.2-0.4
								c0.2-0.2,0.4-0.8,0.4-1.9v-14h-1.8v-2.9h6.6v2.9h-1.8v13.9c0,1.7-0.3,3-0.9,4C90.2,224.1,89.1,224.6,87.5,224.6z"/>
						</g>
						<g>
							<path class="st0" d="M101.9,220.7c-1.9,0-3.4-0.7-4.5-2c-1.1-1.3-1.7-3-1.7-5.2c0-2.2,0.6-4,1.8-5.3c1.2-1.3,2.8-2,4.7-2
								c1.9,0,3.4,0.6,4.5,1.9c1.1,1.2,1.7,3,1.7,5.1c0,2.3-0.6,4.1-1.8,5.4C105.4,220,103.8,220.7,101.9,220.7z M101.9,209.1
								c-1,0-1.7,0.3-2.3,0.9c-0.6,0.6-0.9,1.7-0.9,3.2c0,1.6,0.3,2.7,0.9,3.5c0.6,0.7,1.4,1.1,2.4,1.1c1,0,1.8-0.3,2.3-1
								c0.6-0.7,0.8-1.9,0.8-3.4c0-1.5-0.3-2.7-0.8-3.4C103.8,209.4,103,209.1,101.9,209.1z"/>
						</g>
						<g>
							<path class="st0" d="M116,220.7c-1.5,0-2.9-0.3-4.3-0.9l-0.3-0.1v-3.9h3v1.9c0.6,0.1,1.2,0.2,1.8,0.2c0.8,0,1.4-0.1,1.9-0.4
								c0.4-0.2,0.6-0.4,0.6-0.8c0-0.4-0.2-0.7-0.5-0.9c-0.5-0.3-1.2-0.6-2.1-0.8c-0.5-0.2-1-0.3-1.6-0.5c-0.6-0.2-1.1-0.5-1.5-0.8
								c-0.5-0.3-0.9-0.7-1.2-1.2c-0.3-0.5-0.5-1.2-0.5-1.9c0-1.4,0.5-2.4,1.6-3.2c1-0.7,2.3-1.1,3.9-1.1c1.3,0,2.7,0.3,4.2,0.7
								l0.4,0.1v4.1h-3v-1.9c-0.5-0.1-1.1-0.2-1.7-0.2c-0.7,0-1.3,0.1-1.8,0.3c-0.4,0.2-0.5,0.4-0.5,0.8c0,0.2,0,0.4,0.1,0.5
								c0.1,0.1,0.2,0.3,0.4,0.4c0.2,0.1,0.5,0.3,0.9,0.4c0.4,0.1,0.9,0.3,1.4,0.5c0.5,0.2,1,0.4,1.5,0.6c0.5,0.2,1,0.5,1.5,0.8
								c0.5,0.3,0.9,0.7,1.1,1.2c0.3,0.5,0.5,1.1,0.5,1.8c0,1.4-0.6,2.5-1.7,3.3C119,220.4,117.7,220.7,116,220.7z"/>
						</g>
						<g>
							<path class="st0" d="M131,220.7c-2,0-3.6-0.7-4.7-2c-1.1-1.3-1.7-3-1.7-5.1c0-2.3,0.6-4.1,1.7-5.4c1.1-1.3,2.7-2,4.5-2
								c1.7,0,3,0.6,3.9,1.8c0.9,1.1,1.3,2.7,1.3,4.7v1.6h-8.3c0.1,1.1,0.4,1.9,0.9,2.5c0.5,0.7,1.4,1,2.6,1c1.2,0,2.4-0.4,3.6-1.2
								l0.9-0.6v3.3l-0.3,0.2C134,220.3,132.6,220.7,131,220.7z M133,211.4c-0.3-2-1.4-2.3-2.4-2.3c-0.9,0-1.5,0.2-1.9,0.7
								c-0.4,0.4-0.6,0.9-0.8,1.6H133z"/>
						</g>
						<g>
							<path class="st0" d="M138.3,226.5v-2.9h1.8v-14.5h-1.8v-2.9h4.6l0.1,1c1-0.7,2-1,3.1-1c1.6,0,3,0.7,4,2c1,1.3,1.5,3,1.5,5
								c0,2.2-0.6,4-1.7,5.4c-1.2,1.4-2.7,2.1-4.5,2.1c-0.8,0-1.5-0.1-2.3-0.4v3.2h1.8v2.9H138.3z M143.1,217.5
								c0.6,0.2,1.3,0.3,2,0.3c1.1,0,1.9-0.3,2.5-1c0.6-0.7,0.9-1.8,0.9-3.3c0-1.5-0.3-2.6-0.8-3.4c-0.5-0.7-1.2-1.1-2.1-1.1
								c-0.9,0-1.7,0.4-2.5,1.3V217.5z"/>
						</g>
						<g>
							<path class="st0" d="M161.3,220.7v-2.9h1.8v-6.8c0-0.8-0.1-1.3-0.4-1.6c-0.3-0.3-0.7-0.4-1.2-0.4c-1.1,0-2.1,0.5-3,1.6v7.1
								h1.8v2.9h-6.6v-2.9h1.8v-14.3h-1.8v-3h4.8v6.9c1-0.8,2.2-1.2,3.5-1.2c1.4,0,2.4,0.4,3.1,1.3c0.7,0.8,1,1.9,1,3.3v7h1.8v2.9
								H161.3z"/>
						</g>
					</g>
				</g>
			</g>
		</g>
		<g>
			<g>
				<polygon class="st3" points="388.8,147.2 305.4,195.4 222,147.2 222,51 305.4,2.9 388.8,51 				"/>
				<g>
					<path class="st4" d="M292.4,35.9l-13,28.7l22.4,49.4c3.3,7.2-2,15.7-9.9,15.4c-0.3,0-0.6,0-0.8-0.1c-5.3-0.6-9.4-4.6-10.1-9.9
						c-0.8-6.9,4.6-13,11.3-13l0,0l-10.7-23.4c-15.7,4.8-27.4,19-26.7,36.5c0.8,18.7,15.5,34.2,34.1,35.7
						c16.8,1.4,31.5-8.3,37.6-22.5c3-7,2.8-15-0.3-22L292.4,35.9z"/>
					<polygon class="st5" points="324.4,35.4 311.4,64.1 335.6,117.7 361.6,117.7 					"/>
					<polyline class="st4" points="338.9,64.2 324.4,35.4 324.4,92.8 335.6,117.7 362.5,117.7 349.9,91.7 351.6,91.7 337.4,64.2 
						338.4,64.2 					"/>
				</g>
			</g>
			<g>
				<g>
					<g>
						<g>
							<polygon class="st3" points="238.5,251.7 238.5,248.7 240.5,248.7 240.5,238.8 235.4,251.7 233.2,251.7 228.2,238.8 
								228.2,248.7 230.1,248.7 230.1,251.7 223.2,251.7 223.2,248.7 225.1,248.7 225.1,235.4 223.2,235.4 223.2,232.4 229,232.4 
								234.4,246.4 239.9,232.4 245.4,232.4 245.4,235.4 243.5,235.4 243.5,248.7 245.4,248.7 245.4,251.7 							"/>
						</g>
						<g>
							<path class="st3" d="M256.6,251.7c-2.6,0-4.8-0.9-6.4-2.6c-1.6-1.7-2.4-4.1-2.4-7c0-3,0.8-5.4,2.4-7.1
								c1.6-1.7,3.8-2.6,6.4-2.6c1.9,0,3.9,0.5,5.9,1.5l0.3,0.2v4.7h-3.1v-2.7c-1-0.4-2.1-0.6-3.3-0.6c-1.8,0-3.2,0.5-4.1,1.7
								c-0.9,1.1-1.4,2.8-1.4,4.9c0,2.1,0.5,3.8,1.5,5c1,1.2,2.4,1.8,4.2,1.8c1.6,0,3.4-0.6,5.2-1.7l0.9-0.5v3.2l-0.3,0.2
								C260.6,251.1,258.6,251.7,256.6,251.7z"/>
						</g>
						<g>
							<path class="st3" d="M276.8,251.7v-3h1.8l-1.1-3.2h-6l-1.1,3.2h1.9v3h-6.9v-3h1.9l5.9-16.3h2.9l5.8,16.3h1.9v3H276.8z
								 M276.4,242.5l-2-5.6l-2,5.6H276.4z"/>
						</g>
						<g>
							<polygon class="st3" points="286.3,251.7 286.3,248.7 288.3,248.7 288.3,235.4 286.3,235.4 286.3,232.4 293.2,232.4 
								293.2,235.4 291.3,235.4 291.3,248.7 297.9,248.7 297.9,245.2 300.9,245.2 300.9,251.7 							"/>
						</g>
						<g>
							<polygon class="st3" points="303,251.7 303,248.7 304.9,248.7 304.9,235.4 303,235.4 303,232.4 309.8,232.4 309.8,235.4 
								307.9,235.4 307.9,248.7 309.8,248.7 309.8,251.7 							"/>
						</g>
						<g>
							<polygon class="st3" points="327.3,251.7 318.6,238.4 318.6,248.7 320.5,248.7 320.5,251.7 313.6,251.7 313.6,248.7 
								315.5,248.7 315.5,235.4 313.6,235.4 313.6,232.4 318.3,232.4 327.1,245.7 327.1,235.4 325.1,235.4 325.1,232.4 332,232.4 
								332,235.4 330.1,235.4 330.1,251.7 							"/>
						</g>
						<g>
							<path class="st3" d="M335.1,251.7v-3h1.9v-13.3h-1.9v-3h6.5c3,0,5.3,0.8,6.8,2.3c1.6,1.5,2.4,3.8,2.4,6.8
								c0,3.3-0.9,5.9-2.6,7.6c-1.7,1.7-4,2.5-6.9,2.5H335.1z M341.5,248.7c2,0,3.5-0.5,4.5-1.7c1-1.1,1.6-2.9,1.6-5.2
								c0-2.2-0.5-3.8-1.4-4.8c-0.9-1-2.5-1.5-4.6-1.5H340v13.3H341.5z"/>
						</g>
						<g>
							<polygon class="st3" points="352.8,251.7 352.8,248.7 354.8,248.7 354.8,235.4 352.8,235.4 352.8,232.4 366.8,232.4 
								366.8,238.9 363.7,238.9 363.7,235.4 357.8,235.4 357.8,240.2 359.9,240.2 359.9,238.1 362.9,238.1 362.9,245.3 359.9,245.3 
								359.9,243.1 357.8,243.1 357.8,248.7 363.7,248.7 363.7,245.2 366.8,245.2 366.8,251.7 							"/>
						</g>
						<g>
							<polygon class="st3" points="382.9,251.7 374.2,238.4 374.2,248.7 376.1,248.7 376.1,251.7 369.2,251.7 369.2,248.7 
								371.1,248.7 371.1,235.4 369.2,235.4 369.2,232.4 373.9,232.4 382.6,245.7 382.6,235.4 380.7,235.4 380.7,232.4 387.6,232.4 
								387.6,235.4 385.7,235.4 385.7,251.7 							"/>
						</g>
						<g>
							<path class="st3" d="M256.7,251.7c-2.6,0-4.8-0.9-6.4-2.6c-1.6-1.7-2.4-4.1-2.4-7.1c0-2.9,0.8-5.2,2.4-7
								c1.6-1.7,3.8-2.6,6.4-2.6c2,0,4,0.6,6,1.8l0.3,0.2v3.2l-0.9-0.5c-1.9-1.1-3.6-1.7-5.2-1.7c-1.8,0-3.2,0.6-4.2,1.8
								c-1,1.2-1.5,2.9-1.5,5c0,2.1,0.5,3.7,1.4,4.9c0.9,1.1,2.3,1.7,4.1,1.7c1.2,0,2.3-0.2,3.3-0.6v-2.7h3.1v4.7l-0.3,0.2
								C260.6,251.2,258.6,251.7,256.7,251.7z"/>
						</g>
					</g>
				</g>
				<g>
					<g>
						<g>
							<path class="st3" d="M234.1,220.7v-2.9h1.6l-1.1-3H229l-1,3h1.7v2.9h-6.6v-2.9h1.8l5.6-15.5h2.8l5.5,15.5h1.8v2.9H234.1z
								 M233.7,211.9l-1.8-5.2l-1.8,5.2H233.7z"/>
						</g>
						<g>
							<path class="st3" d="M250.6,220.7l-0.1-1.3c-1,0.9-2.2,1.3-3.5,1.3c-1.4,0-2.4-0.4-3.2-1.1c-0.8-0.8-1.1-1.8-1.1-3.1
								c0-2.2,1.2-4.8,7-4.8h0.7v-0.8c0-0.6-0.1-1.1-0.5-1.3c-0.3-0.3-0.8-0.4-1.6-0.4c-1.2,0-2.6,0.4-4.1,1.1l-0.8,0.4v-3l0.3-0.2
								c1.6-0.8,3.2-1.2,4.9-1.2c1.5,0,2.7,0.4,3.5,1.1c0.8,0.8,1.2,2,1.2,3.6v6.9h1.8v2.9H250.6z M249.4,214.5
								c-3.6,0-3.6,1.4-3.6,1.8c0,0.5,0.1,0.9,0.4,1.1c0.3,0.2,0.7,0.4,1.2,0.4c1.1,0,2.1-0.5,3-1.6v-1.7H249.4z"/>
						</g>
						<g>
							<path class="st3" d="M257.9,220.7v-2.9h1.8v-8.7h-1.8v-2.9h4.6l0.1,1.1c0.8-0.7,1.7-1.1,2.8-1.1c0.3,0,0.7,0,1,0.1l0.5,0.1
								v3.3l-0.7-0.1c-0.4-0.1-0.8-0.1-1.1-0.1c-1.1,0-1.9,0.5-2.4,1.6v6.9h1.8v2.9H257.9z"/>
						</g>
						<g>
							<path class="st3" d="M275.2,220.7c-1.9,0-3.4-0.7-4.5-2c-1.1-1.3-1.7-3-1.7-5.2c0-2.2,0.6-4,1.8-5.3c1.2-1.3,2.8-2,4.7-2
								c1.9,0,3.4,0.6,4.5,1.9c1.1,1.2,1.7,3,1.7,5.1c0,2.3-0.6,4.1-1.8,5.4C278.6,220,277.1,220.7,275.2,220.7z M275.2,209.1
								c-1,0-1.7,0.3-2.3,0.9c-0.6,0.6-0.9,1.7-0.9,3.2c0,1.6,0.3,2.7,0.9,3.5c0.6,0.7,1.4,1.1,2.4,1.1c1,0,1.8-0.3,2.3-1
								c0.6-0.7,0.8-1.9,0.8-3.4c0-1.5-0.3-2.7-0.8-3.4C277.1,209.4,276.3,209.1,275.2,209.1z"/>
						</g>
						<g>
							<path class="st3" d="M291.8,220.7v-2.9h1.8v-6.8c0-0.8-0.1-1.3-0.4-1.6c-0.3-0.3-0.7-0.4-1.2-0.4c-1.1,0-2.1,0.5-3,1.7v7.1
								h1.8v2.9h-6.6v-2.9h1.8v-8.7h-1.8v-2.9h4.7l0.1,1.2c1-0.8,2.2-1.2,3.5-1.2c1.4,0,2.4,0.4,3.1,1.3c0.7,0.8,1,1.9,1,3.3v7h1.8
								v2.9H291.8z"/>
						</g>
						<g>
							<path class="st3" d="M307.2,224.6c-0.4,0-0.8,0-1.1-0.1l-0.5-0.1v-2.8l0.6,0c0.2,0,0.5,0,0.8,0c0.6,0,1-0.1,1.2-0.4
								c0.2-0.2,0.4-0.8,0.4-1.9v-14h-1.8v-2.9h6.6v2.9h-1.8v13.9c0,1.7-0.3,3-0.9,4C310,224.1,308.8,224.6,307.2,224.6z"/>
						</g>
						<g>
							<path class="st3" d="M321.7,220.7c-1.9,0-3.4-0.7-4.5-2c-1.1-1.3-1.7-3-1.7-5.2c0-2.2,0.6-4,1.8-5.3c1.2-1.3,2.8-2,4.7-2
								c1.9,0,3.4,0.6,4.5,1.9c1.1,1.2,1.7,3,1.7,5.1c0,2.3-0.6,4.1-1.8,5.4C325.1,220,323.6,220.7,321.7,220.7z M321.7,209.1
								c-1,0-1.7,0.3-2.3,0.9c-0.6,0.6-0.9,1.7-0.9,3.2c0,1.6,0.3,2.7,0.9,3.5c0.6,0.7,1.4,1.1,2.4,1.1c1,0,1.8-0.3,2.3-1
								c0.6-0.7,0.8-1.9,0.8-3.4c0-1.5-0.3-2.7-0.8-3.4C323.6,209.4,322.8,209.1,321.7,209.1z"/>
						</g>
						<g>
							<path class="st3" d="M335.8,220.7c-1.5,0-2.9-0.3-4.3-0.9l-0.3-0.1v-3.9h3v1.9c0.6,0.1,1.2,0.2,1.8,0.2
								c0.8,0,1.4-0.1,1.9-0.4c0.4-0.2,0.6-0.4,0.6-0.8c0-0.4-0.2-0.7-0.5-0.9c-0.5-0.3-1.2-0.6-2.1-0.8c-0.5-0.2-1-0.3-1.6-0.5
								c-0.6-0.2-1.1-0.5-1.5-0.8c-0.5-0.3-0.9-0.7-1.2-1.2c-0.3-0.5-0.5-1.2-0.5-1.9c0-1.4,0.5-2.4,1.6-3.2c1-0.7,2.3-1.1,3.9-1.1
								c1.3,0,2.7,0.3,4.2,0.7l0.4,0.1v4.1h-3v-1.9c-0.5-0.1-1.1-0.2-1.7-0.2c-0.7,0-1.3,0.1-1.8,0.3c-0.4,0.2-0.5,0.4-0.5,0.8
								c0,0.2,0,0.4,0.1,0.5c0.1,0.1,0.2,0.3,0.4,0.4c0.2,0.1,0.5,0.3,0.9,0.4c0.4,0.1,0.9,0.3,1.4,0.5c0.5,0.2,1,0.4,1.5,0.6
								c0.5,0.2,1,0.5,1.5,0.8c0.5,0.3,0.9,0.7,1.1,1.2c0.3,0.5,0.5,1.1,0.5,1.8c0,1.4-0.6,2.5-1.7,3.3
								C338.8,220.4,337.4,220.7,335.8,220.7z"/>
						</g>
						<g>
							<path class="st3" d="M350.8,220.7c-2,0-3.6-0.7-4.7-2c-1.1-1.3-1.7-3-1.7-5.1c0-2.3,0.6-4.1,1.7-5.4c1.1-1.3,2.7-2,4.5-2
								c1.7,0,3,0.6,3.9,1.8c0.9,1.1,1.3,2.7,1.3,4.7v1.6h-8.3c0.1,1.1,0.4,1.9,0.9,2.5c0.5,0.7,1.4,1,2.6,1c1.2,0,2.4-0.4,3.6-1.2
								l0.9-0.6v3.3l-0.3,0.2C353.8,220.3,352.3,220.7,350.8,220.7z M352.8,211.4c-0.3-2-1.4-2.3-2.4-2.3c-0.9,0-1.5,0.2-1.9,0.7
								c-0.4,0.4-0.6,0.9-0.8,1.6H352.8z"/>
						</g>
						<g>
							<path class="st3" d="M358.1,226.5v-2.9h1.8v-14.5h-1.8v-2.9h4.6l0.1,1c1-0.7,2-1,3.1-1c1.6,0,3,0.7,4,2c1,1.3,1.5,3,1.5,5
								c0,2.2-0.6,4-1.7,5.4c-1.2,1.4-2.7,2.1-4.5,2.1c-0.8,0-1.5-0.1-2.3-0.4v3.2h1.8v2.9H358.1z M362.9,217.5
								c0.6,0.2,1.3,0.3,2,0.3c1.1,0,1.9-0.3,2.5-1c0.6-0.7,0.9-1.8,0.9-3.3c0-1.5-0.3-2.6-0.8-3.4c-0.5-0.7-1.2-1.1-2.1-1.1
								c-0.9,0-1.7,0.4-2.5,1.3V217.5z"/>
						</g>
						<g>
							<path class="st3" d="M381.1,220.7v-2.9h1.8v-6.8c0-0.8-0.1-1.3-0.4-1.6c-0.3-0.3-0.7-0.4-1.2-0.4c-1.1,0-2.1,0.5-3,1.6v7.1
								h1.8v2.9h-6.6v-2.9h1.8v-14.3h-1.8v-3h4.8v6.9c1-0.8,2.2-1.2,3.5-1.2c1.4,0,2.4,0.4,3.1,1.3c0.7,0.8,1,1.9,1,3.3v7h1.8v2.9
								H381.1z"/>
						</g>
					</g>
				</g>
			</g>
		</g>
		<g>
			<g>
				<polygon class="st0" points="614,147.2 530.6,195.4 447.2,147.2 447.2,51 530.6,2.9 614,51 				"/>
				<g>
					<path class="st4" d="M517.6,35.9l-13,28.7L527,114c3.3,7.2-2,15.7-9.9,15.4c-0.3,0-0.6,0-0.8-0.1c-5.3-0.6-9.4-4.6-10.1-9.9
						c-0.8-6.9,4.6-13,11.3-13l0,0l-10.7-23.4c-15.7,4.8-27.4,19-26.7,36.5c0.8,18.7,15.5,34.2,34.1,35.7
						c16.8,1.4,31.5-8.3,37.6-22.5c3-7,2.8-15-0.3-22L517.6,35.9z"/>
					<polygon class="st5" points="549.6,35.4 536.6,64.1 560.8,117.7 586.8,117.7 					"/>
					<polyline class="st4" points="564.1,64.2 549.6,35.4 549.6,92.8 560.8,117.7 587.7,117.7 575.1,91.7 576.8,91.7 562.6,64.2 
						563.6,64.2 					"/>
				</g>
			</g>
			<g>
				<g>
					<g>
						<g>
							<polygon class="st0" points="463.7,251.7 463.7,248.7 465.7,248.7 465.7,238.8 460.6,251.7 458.4,251.7 453.4,238.8 
								453.4,248.7 455.3,248.7 455.3,251.7 448.4,251.7 448.4,248.7 450.3,248.7 450.3,235.4 448.4,235.4 448.4,232.4 454.2,232.4 
								459.6,246.4 465.1,232.4 470.6,232.4 470.6,235.4 468.7,235.4 468.7,248.7 470.6,248.7 470.6,251.7 							"/>
						</g>
						<g>
							<path class="st0" d="M481.8,251.7c-2.6,0-4.8-0.9-6.4-2.6c-1.6-1.7-2.4-4.1-2.4-7c0-3,0.8-5.4,2.4-7.1
								c1.6-1.7,3.8-2.6,6.4-2.6c1.9,0,3.9,0.5,5.9,1.5l0.3,0.2v4.7H485v-2.7c-1-0.4-2.1-0.6-3.3-0.6c-1.8,0-3.2,0.5-4.1,1.7
								c-0.9,1.1-1.4,2.8-1.4,4.9c0,2.1,0.5,3.8,1.5,5c1,1.2,2.4,1.8,4.2,1.8c1.6,0,3.4-0.6,5.2-1.7l0.9-0.5v3.2l-0.3,0.2
								C485.8,251.1,483.8,251.7,481.8,251.7z"/>
						</g>
						<g>
							<path class="st0" d="M502,251.7v-3h1.8l-1.1-3.2h-6l-1.1,3.2h1.9v3h-6.9v-3h1.9l5.9-16.3h2.9l5.8,16.3h1.9v3H502z
								 M501.6,242.5l-2-5.6l-2,5.6H501.6z"/>
						</g>
						<g>
							<polygon class="st0" points="511.5,251.7 511.5,248.7 513.5,248.7 513.5,235.4 511.5,235.4 511.5,232.4 518.4,232.4 
								518.4,235.4 516.5,235.4 516.5,248.7 523.1,248.7 523.1,245.2 526.1,245.2 526.1,251.7 							"/>
						</g>
						<g>
							<polygon class="st0" points="528.2,251.7 528.2,248.7 530.1,248.7 530.1,235.4 528.2,235.4 528.2,232.4 535,232.4 535,235.4 
								533.1,235.4 533.1,248.7 535,248.7 535,251.7 							"/>
						</g>
						<g>
							<polygon class="st0" points="552.5,251.7 543.8,238.4 543.8,248.7 545.7,248.7 545.7,251.7 538.8,251.7 538.8,248.7 
								540.7,248.7 540.7,235.4 538.8,235.4 538.8,232.4 543.5,232.4 552.3,245.7 552.3,235.4 550.3,235.4 550.3,232.4 557.2,232.4 
								557.2,235.4 555.3,235.4 555.3,251.7 							"/>
						</g>
						<g>
							<path class="st0" d="M560.3,251.7v-3h1.9v-13.3h-1.9v-3h6.5c3,0,5.2,0.8,6.8,2.3c1.6,1.5,2.4,3.8,2.4,6.8
								c0,3.3-0.9,5.9-2.6,7.6c-1.7,1.7-4,2.5-6.9,2.5H560.3z M566.7,248.7c2,0,3.5-0.5,4.5-1.7c1-1.1,1.6-2.9,1.6-5.2
								c0-2.2-0.5-3.8-1.4-4.8c-0.9-1-2.5-1.5-4.6-1.5h-1.4v13.3H566.7z"/>
						</g>
						<g>
							<polygon class="st0" points="578,251.7 578,248.7 580,248.7 580,235.4 578,235.4 578,232.4 592,232.4 592,238.9 588.9,238.9 
								588.9,235.4 583,235.4 583,240.2 585.1,240.2 585.1,238.1 588.1,238.1 588.1,245.3 585.1,245.3 585.1,243.1 583,243.1 
								583,248.7 588.9,248.7 588.9,245.2 592,245.2 592,251.7 							"/>
						</g>
						<g>
							<polygon class="st0" points="608.1,251.7 599.4,238.4 599.4,248.7 601.3,248.7 601.3,251.7 594.4,251.7 594.4,248.7 
								596.3,248.7 596.3,235.4 594.4,235.4 594.4,232.4 599.1,232.4 607.8,245.7 607.8,235.4 605.9,235.4 605.9,232.4 612.8,232.4 
								612.8,235.4 610.9,235.4 610.9,251.7 							"/>
						</g>
						<g>
							<path class="st0" d="M481.9,251.7c-2.6,0-4.8-0.9-6.4-2.6c-1.6-1.7-2.4-4.1-2.4-7.1c0-2.9,0.8-5.2,2.4-7
								c1.6-1.7,3.8-2.6,6.4-2.6c2,0,4,0.6,6,1.8l0.3,0.2v3.2l-0.9-0.5c-1.9-1.1-3.7-1.7-5.2-1.7c-1.8,0-3.2,0.6-4.2,1.8
								c-1,1.2-1.5,2.9-1.5,5c0,2.1,0.5,3.7,1.4,4.9c0.9,1.1,2.3,1.7,4.1,1.7c1.2,0,2.3-0.2,3.3-0.6v-2.7h3.1v4.7l-0.3,0.2
								C485.8,251.2,483.8,251.7,481.9,251.7z"/>
						</g>
					</g>
				</g>
				<g>
					<g>
						<g>
							<path class="st0" d="M459.3,220.7v-2.9h1.6l-1.1-3h-5.6l-1,3h1.7v2.9h-6.6v-2.9h1.8l5.6-15.5h2.8l5.5,15.5h1.8v2.9H459.3z
								 M458.9,211.9l-1.8-5.2l-1.8,5.2H458.9z"/>
						</g>
						<g>
							<path class="st0" d="M475.8,220.7l-0.1-1.3c-1,0.9-2.2,1.3-3.5,1.3c-1.4,0-2.4-0.4-3.2-1.1c-0.8-0.8-1.1-1.8-1.1-3.1
								c0-2.2,1.2-4.8,7-4.8h0.7v-0.8c0-0.6-0.1-1.1-0.4-1.3c-0.3-0.3-0.8-0.4-1.6-0.4c-1.2,0-2.6,0.4-4.1,1.1l-0.8,0.4v-3l0.3-0.2
								c1.6-0.8,3.2-1.2,4.9-1.2c1.5,0,2.7,0.4,3.5,1.1c0.8,0.8,1.2,2,1.2,3.6v6.9h1.8v2.9H475.8z M474.6,214.5
								c-3.6,0-3.6,1.4-3.6,1.8c0,0.5,0.1,0.9,0.4,1.1c0.3,0.2,0.7,0.4,1.2,0.4c1.1,0,2.1-0.5,3-1.6v-1.7H474.6z"/>
						</g>
						<g>
							<path class="st0" d="M483.1,220.7v-2.9h1.8v-8.7h-1.8v-2.9h4.6l0.1,1.1c0.8-0.7,1.7-1.1,2.8-1.1c0.3,0,0.7,0,1,0.1l0.5,0.1
								v3.3l-0.7-0.1c-0.4-0.1-0.8-0.1-1.1-0.1c-1.1,0-1.9,0.5-2.4,1.6v6.9h1.8v2.9H483.1z"/>
						</g>
						<g>
							<path class="st0" d="M500.4,220.7c-1.9,0-3.4-0.7-4.5-2c-1.1-1.3-1.7-3-1.7-5.2c0-2.2,0.6-4,1.8-5.3c1.2-1.3,2.8-2,4.7-2
								c1.9,0,3.4,0.6,4.5,1.9c1.1,1.2,1.7,3,1.7,5.1c0,2.3-0.6,4.1-1.8,5.4C503.8,220,502.3,220.7,500.4,220.7z M500.4,209.1
								c-1,0-1.7,0.3-2.3,0.9c-0.6,0.6-0.9,1.7-0.9,3.2c0,1.6,0.3,2.7,0.9,3.5c0.6,0.7,1.4,1.1,2.4,1.1c1,0,1.8-0.3,2.3-1
								c0.6-0.7,0.8-1.9,0.8-3.4c0-1.5-0.3-2.7-0.8-3.4C502.3,209.4,501.5,209.1,500.4,209.1z"/>
						</g>
						<g>
							<path class="st0" d="M517,220.7v-2.9h1.8v-6.8c0-0.8-0.1-1.3-0.4-1.6c-0.3-0.3-0.7-0.4-1.2-0.4c-1.1,0-2.1,0.5-3,1.7v7.1h1.8
								v2.9h-6.6v-2.9h1.8v-8.7h-1.8v-2.9h4.7l0.1,1.2c1-0.8,2.2-1.2,3.5-1.2c1.4,0,2.4,0.4,3.1,1.3c0.7,0.8,1,2,1,3.3v7h1.8v2.9
								H517z"/>
						</g>
						<g>
							<path class="st0" d="M532.4,224.6c-0.4,0-0.8,0-1.1-0.1l-0.5-0.1v-2.8l0.6,0c0.2,0,0.5,0,0.8,0c0.6,0,1-0.1,1.2-0.4
								c0.2-0.2,0.4-0.8,0.4-1.9v-14H532v-2.9h6.6v2.9h-1.8v13.9c0,1.7-0.3,3-0.9,4C535.2,224.1,534,224.6,532.4,224.6z"/>
						</g>
						<g>
							<path class="st0" d="M546.8,220.7c-1.9,0-3.4-0.7-4.5-2c-1.1-1.3-1.7-3-1.7-5.2c0-2.2,0.6-4,1.8-5.3c1.2-1.3,2.8-2,4.7-2
								c1.9,0,3.4,0.6,4.5,1.9c1.1,1.2,1.7,3,1.7,5.1c0,2.3-0.6,4.1-1.8,5.4C550.3,220,548.7,220.7,546.8,220.7z M546.9,209.1
								c-1,0-1.7,0.3-2.3,0.9c-0.6,0.6-0.9,1.7-0.9,3.2c0,1.6,0.3,2.7,0.9,3.5c0.6,0.7,1.4,1.1,2.4,1.1c1,0,1.8-0.3,2.3-1
								c0.6-0.7,0.8-1.9,0.8-3.4c0-1.5-0.3-2.7-0.8-3.4C548.8,209.4,548,209.1,546.9,209.1z"/>
						</g>
						<g>
							<path class="st0" d="M560.9,220.7c-1.5,0-2.9-0.3-4.3-0.9l-0.3-0.1v-3.9h3v1.9c0.6,0.1,1.2,0.2,1.8,0.2
								c0.8,0,1.4-0.1,1.9-0.4c0.4-0.2,0.6-0.4,0.6-0.8c0-0.4-0.2-0.7-0.5-0.9c-0.5-0.3-1.2-0.6-2.1-0.8c-0.5-0.2-1-0.3-1.6-0.5
								c-0.6-0.2-1.1-0.5-1.5-0.8c-0.5-0.3-0.9-0.7-1.2-1.2c-0.3-0.5-0.5-1.2-0.5-1.9c0-1.4,0.5-2.4,1.6-3.2c1-0.7,2.3-1.1,3.9-1.1
								c1.3,0,2.7,0.3,4.2,0.7l0.4,0.1v4.1h-3v-1.9c-0.5-0.1-1.1-0.2-1.7-0.2c-0.7,0-1.3,0.1-1.8,0.3c-0.4,0.2-0.5,0.4-0.5,0.8
								c0,0.2,0,0.4,0.1,0.5c0.1,0.1,0.2,0.3,0.4,0.4c0.2,0.1,0.5,0.3,0.9,0.4c0.4,0.1,0.9,0.3,1.4,0.5c0.5,0.2,1,0.4,1.5,0.6
								c0.5,0.2,1,0.5,1.5,0.8c0.5,0.3,0.9,0.7,1.1,1.2c0.3,0.5,0.5,1.1,0.5,1.8c0,1.4-0.6,2.5-1.7,3.3
								C564,220.4,562.6,220.7,560.9,220.7z"/>
						</g>
						<g>
							<path class="st0" d="M576,220.7c-2,0-3.6-0.7-4.7-2c-1.1-1.3-1.7-3-1.7-5.1c0-2.3,0.6-4.1,1.7-5.4c1.1-1.3,2.7-2,4.5-2
								c1.7,0,3,0.6,3.9,1.8c0.9,1.2,1.3,2.7,1.3,4.7v1.6h-8.3c0.1,1.1,0.4,1.9,0.9,2.5c0.5,0.7,1.4,1,2.6,1c1.2,0,2.4-0.4,3.6-1.2
								l0.9-0.6v3.3l-0.3,0.2C579,220.3,577.5,220.7,576,220.7z M578,211.4c-0.3-2-1.4-2.3-2.4-2.3c-0.9,0-1.5,0.2-1.9,0.7
								c-0.4,0.4-0.6,0.9-0.8,1.6H578z"/>
						</g>
						<g>
							<path class="st0" d="M583.3,226.5v-2.9h1.8v-14.5h-1.8v-2.9h4.6l0.1,1c1-0.7,2-1,3.1-1c1.6,0,3,0.7,4,2c1,1.3,1.5,3,1.5,5
								c0,2.2-0.6,4-1.7,5.4c-1.2,1.4-2.7,2.1-4.5,2.1c-0.8,0-1.5-0.1-2.2-0.4v3.2h1.8v2.9H583.3z M588.1,217.5
								c0.6,0.2,1.3,0.3,2,0.3c1.1,0,1.9-0.3,2.5-1c0.6-0.7,0.9-1.8,0.9-3.3c0-1.5-0.3-2.6-0.8-3.4c-0.5-0.7-1.2-1.1-2.1-1.1
								c-0.9,0-1.7,0.4-2.5,1.3V217.5z"/>
						</g>
						<g>
							<path class="st0" d="M606.3,220.7v-2.9h1.8v-6.8c0-0.8-0.1-1.3-0.4-1.6c-0.3-0.3-0.7-0.4-1.2-0.4c-1.1,0-2.1,0.5-3,1.6v7.1
								h1.8v2.9h-6.6v-2.9h1.8v-14.3h-1.8v-3h4.8v6.9c1-0.8,2.2-1.2,3.5-1.2c1.4,0,2.4,0.4,3.1,1.3c0.7,0.8,1,1.9,1,3.3v7h1.8v2.9
								H606.3z"/>
						</g>
					</g>
				</g>
			</g>
		</g>
	</g>
	<g>
		<g>
			<polygon class="st3" points="833.7,147.2 750.4,195.4 667,147.2 667,51 750.4,2.9 833.7,51 			"/>
			<g>
				<path class="st1" d="M737.3,35.9l-13,28.7l22.4,49.4c3.3,7.2-2,15.7-9.9,15.4c-0.3,0-0.6,0-0.8-0.1c-5.3-0.6-9.4-4.6-10.1-9.9
					c-0.8-6.9,4.6-13,11.3-13l0,0l-10.7-23.4c-15.7,4.8-27.4,19-26.7,36.5c0.8,18.7,15.5,34.2,34.1,35.7
					c16.8,1.4,31.5-8.3,37.6-22.5c3-7,2.8-15-0.3-22L737.3,35.9z"/>
				<polygon class="st2" points="769.3,35.4 756.3,64.1 780.6,117.7 806.6,117.7 				"/>
				<polyline class="st1" points="783.8,64.2 769.3,35.4 769.3,92.8 780.6,117.7 807.5,117.7 794.8,91.7 796.5,91.7 782.4,64.2 
					783.4,64.2 				"/>
			</g>
		</g>
		<g>
			<g>
				<g>
					<g>
						<polygon class="st3" points="683.5,251.7 683.5,248.7 685.4,248.7 685.4,238.8 680.3,251.7 678.2,251.7 673.1,238.8 
							673.1,248.7 675,248.7 675,251.7 668.1,251.7 668.1,248.7 670.1,248.7 670.1,235.4 668.1,235.4 668.1,232.4 673.9,232.4 
							679.4,246.4 684.9,232.4 690.4,232.4 690.4,235.4 688.5,235.4 688.5,248.7 690.4,248.7 690.4,251.7 						"/>
					</g>
					<g>
						<path class="st3" d="M701.5,251.7c-2.6,0-4.8-0.9-6.4-2.6c-1.6-1.7-2.4-4.1-2.4-7c0-3,0.8-5.4,2.4-7.1
							c1.6-1.7,3.8-2.6,6.4-2.6c1.9,0,3.9,0.5,5.9,1.5l0.3,0.2v4.7h-3.1v-2.7c-1-0.4-2.1-0.6-3.3-0.6c-1.8,0-3.2,0.5-4.1,1.7
							c-0.9,1.1-1.4,2.8-1.4,4.9c0,2.1,0.5,3.8,1.5,5c1,1.2,2.4,1.8,4.2,1.8c1.6,0,3.4-0.6,5.2-1.7l0.9-0.5v3.2l-0.3,0.2
							C705.5,251.1,703.5,251.7,701.5,251.7z"/>
					</g>
					<g>
						<path class="st3" d="M721.8,251.7v-3h1.8l-1.1-3.2h-6l-1.1,3.2h1.9v3h-6.9v-3h1.9l5.9-16.3h2.9l5.8,16.3h1.9v3H721.8z
							 M721.4,242.5l-2-5.6l-2,5.6H721.4z"/>
					</g>
					<g>
						<polygon class="st3" points="731.3,251.7 731.3,248.7 733.2,248.7 733.2,235.4 731.3,235.4 731.3,232.4 738.2,232.4 
							738.2,235.4 736.3,235.4 736.3,248.7 742.8,248.7 742.8,245.2 745.9,245.2 745.9,251.7 						"/>
					</g>
					<g>
						<polygon class="st3" points="747.9,251.7 747.9,248.7 749.8,248.7 749.8,235.4 747.9,235.4 747.9,232.4 754.8,232.4 
							754.8,235.4 752.9,235.4 752.9,248.7 754.8,248.7 754.8,251.7 						"/>
					</g>
					<g>
						<polygon class="st3" points="772.3,251.7 763.6,238.4 763.6,248.7 765.5,248.7 765.5,251.7 758.6,251.7 758.6,248.7 
							760.5,248.7 760.5,235.4 758.6,235.4 758.6,232.4 763.3,232.4 772,245.7 772,235.4 770.1,235.4 770.1,232.4 777,232.4 
							777,235.4 775.1,235.4 775.1,251.7 						"/>
					</g>
					<g>
						<path class="st3" d="M780,251.7v-3h1.9v-13.3H780v-3h6.5c3,0,5.2,0.8,6.8,2.3c1.6,1.5,2.4,3.8,2.4,6.8c0,3.3-0.9,5.9-2.6,7.6
							c-1.7,1.7-4,2.5-6.9,2.5H780z M786.4,248.7c2,0,3.5-0.5,4.5-1.7c1-1.1,1.6-2.9,1.6-5.2c0-2.2-0.5-3.8-1.4-4.8
							c-0.9-1-2.5-1.5-4.6-1.5H785v13.3H786.4z"/>
					</g>
					<g>
						<polygon class="st3" points="797.8,251.7 797.8,248.7 799.7,248.7 799.7,235.4 797.8,235.4 797.8,232.4 811.7,232.4 
							811.7,238.9 808.7,238.9 808.7,235.4 802.8,235.4 802.8,240.2 804.8,240.2 804.8,238.1 807.9,238.1 807.9,245.3 804.8,245.3 
							804.8,243.1 802.8,243.1 802.8,248.7 808.7,248.7 808.7,245.2 811.7,245.2 811.7,251.7 						"/>
					</g>
					<g>
						<polygon class="st3" points="827.9,251.7 819.1,238.4 819.1,248.7 821.1,248.7 821.1,251.7 814.2,251.7 814.2,248.7 
							816.1,248.7 816.1,235.4 814.2,235.4 814.2,232.4 818.9,232.4 827.6,245.7 827.6,235.4 825.7,235.4 825.7,232.4 832.6,232.4 
							832.6,235.4 830.7,235.4 830.7,251.7 						"/>
					</g>
					<g>
						<path class="st3" d="M701.6,251.7c-2.6,0-4.8-0.9-6.4-2.6c-1.6-1.7-2.4-4.1-2.4-7.1c0-2.9,0.8-5.2,2.4-7
							c1.6-1.7,3.8-2.6,6.4-2.6c2,0,4,0.6,6,1.8l0.3,0.2v3.2l-0.9-0.5c-1.9-1.1-3.7-1.7-5.2-1.7c-1.8,0-3.2,0.6-4.2,1.8
							c-1,1.2-1.5,2.9-1.5,5c0,2.1,0.5,3.7,1.4,4.9c0.9,1.1,2.3,1.7,4.1,1.7c1.2,0,2.3-0.2,3.3-0.6v-2.7h3.1v4.7l-0.3,0.2
							C705.5,251.2,703.6,251.7,701.6,251.7z"/>
					</g>
				</g>
			</g>
			<g>
				<g>
					<g>
						<path class="st3" d="M679,220.7v-2.9h1.6l-1.1-3H674l-1,3h1.7v2.9h-6.6v-2.9h1.8l5.6-15.5h2.8l5.5,15.5h1.8v2.9H679z
							 M678.6,211.9l-1.8-5.2l-1.8,5.2H678.6z"/>
					</g>
					<g>
						<path class="st3" d="M695.5,220.7l-0.1-1.3c-1,0.9-2.2,1.3-3.5,1.3c-1.4,0-2.4-0.4-3.2-1.1c-0.8-0.8-1.1-1.8-1.1-3.1
							c0-2.2,1.2-4.8,7-4.8h0.7v-0.8c0-0.6-0.1-1.1-0.4-1.3c-0.3-0.3-0.8-0.4-1.6-0.4c-1.2,0-2.6,0.4-4.1,1.1l-0.8,0.4v-3l0.3-0.2
							c1.6-0.8,3.2-1.2,4.9-1.2c1.5,0,2.7,0.4,3.5,1.1c0.8,0.8,1.2,2,1.2,3.6v6.9h1.8v2.9H695.5z M694.4,214.5
							c-3.6,0-3.6,1.4-3.6,1.8c0,0.5,0.1,0.9,0.4,1.1c0.3,0.2,0.7,0.4,1.2,0.4c1.1,0,2.1-0.5,3-1.6v-1.7H694.4z"/>
					</g>
					<g>
						<path class="st3" d="M702.9,220.7v-2.9h1.8v-8.7h-1.8v-2.9h4.6l0.1,1.1c0.8-0.7,1.7-1.1,2.8-1.1c0.3,0,0.7,0,1,0.1l0.5,0.1
							v3.3l-0.7-0.1c-0.4-0.1-0.8-0.1-1.1-0.1c-1.1,0-1.9,0.5-2.4,1.6v6.9h1.8v2.9H702.9z"/>
					</g>
					<g>
						<path class="st3" d="M720.1,220.7c-1.9,0-3.4-0.7-4.5-2c-1.1-1.3-1.7-3-1.7-5.2c0-2.2,0.6-4,1.8-5.3c1.2-1.3,2.8-2,4.7-2
							c1.9,0,3.4,0.6,4.5,1.9c1.1,1.2,1.7,3,1.7,5.1c0,2.3-0.6,4.1-1.8,5.4C723.6,220,722,220.7,720.1,220.7z M720.2,209.1
							c-1,0-1.7,0.3-2.3,0.9c-0.6,0.6-0.9,1.7-0.9,3.2c0,1.6,0.3,2.7,0.9,3.5c0.6,0.7,1.4,1.1,2.4,1.1c1,0,1.8-0.3,2.3-1
							c0.6-0.7,0.8-1.9,0.8-3.4c0-1.5-0.3-2.7-0.8-3.4C722.1,209.4,721.3,209.1,720.2,209.1z"/>
					</g>
					<g>
						<path class="st3" d="M736.7,220.7v-2.9h1.8v-6.8c0-0.8-0.1-1.3-0.4-1.6c-0.3-0.3-0.7-0.4-1.2-0.4c-1.1,0-2.1,0.5-3,1.7v7.1
							h1.8v2.9h-6.6v-2.9h1.8v-8.7h-1.8v-2.9h4.7l0.1,1.2c1-0.8,2.2-1.2,3.5-1.2c1.4,0,2.4,0.4,3.1,1.3c0.7,0.8,1,1.9,1,3.3v7h1.8
							v2.9H736.7z"/>
					</g>
					<g>
						<path class="st3" d="M752.2,224.6c-0.4,0-0.8,0-1.1-0.1l-0.5-0.1v-2.8l0.6,0c0.2,0,0.5,0,0.8,0c0.9,0,1.1-0.3,1.2-0.4
							c0.2-0.2,0.4-0.8,0.4-1.9v-14h-1.8v-2.9h6.6v2.9h-1.8v13.9c0,1.7-0.3,3-0.9,4C755,224.1,753.8,224.6,752.2,224.6z"/>
					</g>
					<g>
						<path class="st3" d="M766.6,220.7c-1.9,0-3.4-0.7-4.5-2c-1.1-1.3-1.7-3-1.7-5.2c0-2.2,0.6-4,1.8-5.3c1.2-1.3,2.8-2,4.7-2
							c1.9,0,3.4,0.6,4.5,1.9c1.1,1.2,1.7,3,1.7,5.1c0,2.3-0.6,4.1-1.8,5.4C770.1,220,768.5,220.7,766.6,220.7z M766.6,209.1
							c-1,0-1.7,0.3-2.3,0.9c-0.6,0.6-0.9,1.7-0.9,3.2c0,1.6,0.3,2.7,0.9,3.5c0.6,0.7,1.4,1.1,2.4,1.1c1,0,1.8-0.3,2.3-1
							c0.6-0.7,0.8-1.9,0.8-3.4c0-1.5-0.3-2.7-0.8-3.4C768.6,209.4,767.8,209.1,766.6,209.1z"/>
					</g>
					<g>
						<path class="st3" d="M780.7,220.7c-1.5,0-2.9-0.3-4.3-0.9l-0.3-0.1v-3.9h3v1.9c0.6,0.1,1.2,0.2,1.8,0.2c0.8,0,1.4-0.1,1.9-0.4
							c0.4-0.2,0.6-0.4,0.6-0.8c0-0.4-0.2-0.7-0.5-0.9c-0.5-0.3-1.2-0.6-2.1-0.8c-0.5-0.2-1-0.3-1.6-0.5c-0.6-0.2-1.1-0.5-1.5-0.8
							c-0.5-0.3-0.9-0.7-1.2-1.2c-0.3-0.5-0.5-1.2-0.5-1.9c0-1.4,0.5-2.4,1.6-3.2c1-0.7,2.3-1.1,3.9-1.1c1.3,0,2.7,0.3,4.2,0.7
							l0.4,0.1v4.1h-3v-1.9c-0.5-0.1-1.1-0.2-1.7-0.2c-0.7,0-1.3,0.1-1.8,0.3c-0.4,0.2-0.5,0.4-0.5,0.8c0,0.2,0,0.4,0.1,0.5
							c0.1,0.1,0.2,0.3,0.4,0.4c0.2,0.1,0.5,0.3,0.9,0.4c0.4,0.1,0.9,0.3,1.4,0.5c0.5,0.2,1,0.4,1.5,0.6c0.5,0.2,1,0.5,1.5,0.8
							c0.5,0.3,0.9,0.7,1.1,1.2c0.3,0.5,0.5,1.1,0.5,1.8c0,1.4-0.6,2.5-1.7,3.3C783.8,220.4,782.4,220.7,780.7,220.7z"/>
					</g>
					<g>
						<path class="st3" d="M795.7,220.7c-2,0-3.6-0.7-4.7-2c-1.1-1.3-1.7-3-1.7-5.1c0-2.3,0.6-4.1,1.7-5.4c1.1-1.3,2.7-2,4.5-2
							c1.7,0,3,0.6,3.9,1.8c0.9,1.2,1.3,2.7,1.3,4.7v1.6h-8.3c0.1,1.1,0.4,1.9,0.9,2.5c0.5,0.7,1.4,1,2.6,1c1.2,0,2.4-0.4,3.6-1.2
							l0.9-0.6v3.3l-0.3,0.2C798.8,220.3,797.3,220.7,795.7,220.7z M797.7,211.4c-0.3-2-1.4-2.3-2.4-2.3c-0.9,0-1.5,0.2-1.9,0.7
							c-0.4,0.4-0.6,0.9-0.8,1.6H797.7z"/>
					</g>
					<g>
						<path class="st3" d="M803.1,226.5v-2.9h1.8v-14.5h-1.8v-2.9h4.6l0.1,1c1-0.7,2-1,3.1-1c1.6,0,3,0.7,4,2c1,1.3,1.5,3,1.5,5
							c0,2.2-0.6,4-1.7,5.4c-1.2,1.4-2.7,2.1-4.5,2.1c-0.8,0-1.5-0.1-2.2-0.4v3.2h1.8v2.9H803.1z M807.8,217.5
							c0.6,0.2,1.3,0.3,2,0.3c1.1,0,1.9-0.3,2.5-1c0.6-0.7,0.9-1.8,0.9-3.3c0-1.5-0.3-2.6-0.8-3.4c-0.5-0.7-1.2-1.1-2.1-1.1
							c-0.9,0-1.7,0.4-2.5,1.3V217.5z"/>
					</g>
					<g>
						<path class="st3" d="M826,220.7v-2.9h1.8v-6.8c0-0.8-0.1-1.3-0.4-1.6c-0.3-0.3-0.7-0.4-1.2-0.4c-1.1,0-2.1,0.5-3,1.6v7.1h1.8
							v2.9h-6.6v-2.9h1.8v-14.3h-1.8v-3h4.8v6.9c1-0.8,2.2-1.2,3.5-1.2c1.4,0,2.4,0.4,3.1,1.3c0.7,0.8,1,1.9,1,3.3v7h1.8v2.9H826z"
							/>
					</g>
				</g>
			</g>
		</g>
	</g>
</g>
</svg>
